<svg width="151" height="173" viewBox="0 0 151 173" fill="none" xmlns="http://www.w3.org/2000/svg">
<path fill-rule="evenodd" clip-rule="evenodd" d="M10.9126 57.8286C10.9126 57.8286 11.8094 50.3551 12.4073 46.3194C12.4073 46.3194 17.4893 39.1448 25.5607 33.3154L36.3226 33.9133C36.3226 33.9133 14.4999 51.4014 10.9126 57.8286Z" fill="url(#paint0_linear_6_2000)"/>
<path fill-rule="evenodd" clip-rule="evenodd" d="M25.561 33.3154C25.561 33.3154 25.5611 39.2943 20.0306 44.0773C14.5002 48.8604 12.1087 47.2162 12.1087 47.2162L10.7634 56.7824L36.1735 33.9133L25.561 33.3154Z" fill="url(#paint1_linear_6_2000)"/>
<path fill-rule="evenodd" clip-rule="evenodd" d="M141.549 95.9438C141.549 102.67 140.652 109.396 138.858 115.525C135.271 128.08 128.246 139.141 118.979 147.81C112.402 153.938 104.48 158.871 95.8108 162.159C88.0383 165.149 79.5185 166.793 70.6997 166.793C69.5039 166.793 68.1587 166.793 66.9629 166.644C65.1693 166.494 63.2261 166.345 61.4325 166.195C47.8306 164.401 35.2751 158.722 25.2606 150.202C21.5238 147.063 18.086 143.476 14.9471 139.589C12.705 136.6 10.6124 133.61 8.81877 130.322C8.37036 129.575 7.92195 128.678 7.47354 127.931C7.47354 127.931 7.47354 127.931 7.47354 127.781C7.02513 126.884 6.57669 126.137 6.27775 125.24C5.08198 122.55 4.03568 119.71 3.13885 116.87C2.54097 114.777 1.94312 112.685 1.49471 110.592C1.19577 109.097 0.896825 107.603 0.747354 105.958C0.298942 102.67 0 99.3817 0 95.9438C0 94.0007 -2.73734e-05 92.0576 0.298914 90.1145C0.448385 88.9187 0.597883 87.7229 0.747354 86.5272C1.64418 79.502 3.58728 72.9253 6.42723 66.797C7.77246 63.8076 9.41666 60.8182 11.2103 58.1277C14.1997 53.4941 17.6376 49.1595 21.6733 45.2732C34.3783 32.8672 51.8664 25.2441 70.9986 25.2441C71.746 25.2441 72.4934 25.2441 73.2407 25.2441C73.9881 25.2441 74.8848 25.2441 75.6322 25.3936C79.6679 25.6926 83.7036 26.2904 87.5899 27.1873C89.8319 27.7851 92.074 28.383 94.1666 29.1304C95.6613 29.5788 97.0066 30.1767 98.5013 30.7746C99.5476 31.223 100.594 31.6714 101.64 32.1198C101.79 32.2693 101.939 32.2693 102.238 32.4187C109.114 35.7071 115.391 40.1912 120.772 45.5722C121.52 46.3195 122.267 47.0669 123.014 47.9637C123.463 48.5616 124.061 49.01 124.509 49.6079C125.406 50.5047 126.153 51.551 126.901 52.4478C129.741 56.0351 132.132 59.9214 134.225 63.9571C136.616 68.7401 138.559 73.8222 139.905 79.0536C140.801 84.2851 141.549 89.965 141.549 95.9438Z" fill="url(#paint2_radial_6_2000)"/>
<path fill-rule="evenodd" clip-rule="evenodd" d="M101.79 32.269C101.491 32.269 101.341 32.269 101.042 32.4185C100.295 32.568 99.5475 32.4185 98.8002 32.269C98.2023 32.1196 97.9034 31.8206 97.156 31.8206C96.2592 31.6712 95.5118 31.3722 94.615 31.2227C93.7182 31.0733 92.9708 30.7743 92.074 30.4754C91.3266 30.1765 91.0277 30.3259 90.4298 30.4754C89.832 30.6249 89.3835 30.3259 88.7857 30.1765C88.1878 29.8775 87.4404 29.8775 86.8425 29.728C85.0489 29.4291 83.2552 28.8312 81.4616 28.3828C80.4153 28.0839 79.369 28.0839 78.1732 28.0839C77.2764 28.0839 76.529 28.3828 75.6322 28.3828C75.0343 28.3828 74.5859 28.2333 73.9881 28.2333C73.3902 28.0839 72.7923 28.2333 72.1944 28.2333C71.2976 28.0839 70.8492 27.9344 69.9523 28.2333C69.205 28.3828 68.7566 28.3828 68.0092 28.5323C67.2619 28.5323 66.365 28.8312 65.6177 28.9807C64.2724 29.2796 62.7777 29.5786 61.4325 29.5786C60.5356 29.5786 59.3399 29.2796 58.5925 29.5786C58.1441 29.728 57.8452 30.3259 57.3968 30.6249C56.6494 31.3722 55.9021 31.9701 55.3042 32.7175C54.7063 33.4648 54.1084 34.3616 54.1084 35.4079C54.1084 36.3048 54.5568 37.3511 55.0052 38.0984C55.4537 38.9952 55.6031 39.7426 54.7063 40.3405C53.66 41.0878 52.3148 41.6857 51.119 42.1341C50.2222 42.4331 49.4748 42.5825 48.8769 41.9846C48.578 41.8352 48.4285 41.3868 48.1296 41.0878C47.8306 40.9384 47.3822 41.0878 47.0833 41.2373C46.1865 41.5362 45.2896 41.8352 44.3928 41.9846C43.7949 42.1341 43.3465 42.4331 42.7486 42.4331C42.1507 42.5825 41.7024 42.1341 40.955 42.2836C40.0582 42.4331 39.0119 42.8815 38.1151 42.8815C37.3677 42.8815 36.4709 42.5825 35.873 42.2836C35.5741 42.1341 35.4246 41.8352 34.9762 41.9846C34.6772 41.9846 34.2288 42.4331 34.0793 42.732C33.7804 43.0309 33.7804 43.4794 33.4815 43.7783C33.1825 44.2267 33.033 44.5256 32.7341 44.9741C32.2857 45.7214 31.8373 46.4688 31.3889 47.2161C31.0899 47.6645 30.791 48.4119 30.3426 48.8603C30.1931 49.1592 29.7447 49.3087 29.4457 49.4582C28.6984 49.9066 27.951 50.5045 27.2037 50.9529C25.8584 51.9992 24.5132 53.195 23.168 54.2413C22.1217 54.9886 20.627 55.437 19.4312 56.0349C18.6839 56.3338 17.9365 56.6328 17.1891 56.9317C16.8902 57.0812 16.4418 57.0812 16.2923 57.3801C15.9934 57.6791 15.8439 57.978 15.6944 58.4264C15.0966 59.1738 14.3492 60.0706 13.9008 60.9674C13.6018 61.5653 13.4524 62.0137 13.1534 62.6116C12.8545 63.359 12.4061 64.1063 12.2566 65.0032C11.6587 66.6473 11.6587 68.441 10.9114 70.0852C10.6124 70.982 10.0145 71.8788 9.56612 72.7756C8.81877 74.2703 8.66928 76.064 8.51981 77.7082C8.37034 78.605 8.51982 79.8008 8.66929 80.6976C8.81876 81.7439 8.81877 82.7902 8.81877 83.8365C8.81877 84.8828 8.07142 86.0785 7.47354 86.8259C6.87566 87.5732 5.82935 87.8722 5.082 88.6195C4.48412 89.2174 3.73675 89.8153 3.43781 90.7121C3.28834 91.0111 3.43781 91.4595 3.43781 91.9079C3.28834 92.8047 2.98942 93.5521 2.98942 94.4489C2.83995 95.4952 2.83994 96.5415 2.83994 97.7373C2.83994 98.3351 2.83994 98.7836 2.83994 99.3814C2.83994 99.9793 2.98938 100.428 3.13885 100.876C3.13885 101.175 3.13885 101.623 3.13885 101.922C3.13885 102.371 3.43781 102.819 3.43781 103.118C3.73675 104.165 3.88621 105.061 4.03568 106.108C4.18516 107.004 4.63357 107.901 4.78304 108.798C5.23145 109.994 5.38093 111.19 5.67987 112.535C5.82934 113.432 5.82936 114.478 5.97883 115.375C6.1283 116.122 6.27775 116.87 6.27775 117.617C6.27775 118.813 5.97883 119.859 5.97883 121.055C5.97883 122.998 6.72617 124.941 7.17458 126.884C7.32405 127.482 7.4735 127.93 7.62298 128.528C2.69044 118.962 0 108.051 0 96.5415C0 82.4912 4.0357 69.4873 11.0608 58.5759C14.0502 53.9423 17.4881 49.6077 21.5238 45.8709C34.2288 33.4648 51.7169 25.8418 70.8492 25.8418C72.3439 25.8418 73.9881 25.8418 75.4828 25.9913C84.75 25.8418 93.7182 28.2333 101.79 32.269Z" fill="url(#paint3_linear_6_2000)"/>
<path opacity="0.1" fill-rule="evenodd" clip-rule="evenodd" d="M75.1851 129.127C75.1851 129.127 81.7618 138.842 90.5805 146.764C99.3993 154.686 100.595 160.067 100.595 160.067C100.595 160.067 117.186 153.191 128.995 136.75C140.803 120.457 75.1851 129.127 75.1851 129.127Z" fill="black"/>
<path opacity="0.4" fill-rule="evenodd" clip-rule="evenodd" d="M87.1433 27.0378C83.2571 26.141 79.3708 25.5431 75.1857 25.2442C74.4383 25.2442 73.5415 25.0947 72.7941 25.0947C74.4383 25.9916 76.0825 27.6357 76.3814 29.4294C76.9793 32.4188 78.0256 35.1093 78.474 37.9492C79.0719 40.7892 78.9224 44.3765 77.5772 46.9175C76.8298 48.5616 75.7835 49.9069 74.4383 51.2521C73.5415 52.149 72.6447 52.7468 72.0468 53.9426C71.4489 55.1384 70.7015 56.1847 69.9542 57.231C68.9079 58.8751 67.7121 60.5193 66.3669 62.014C65.9185 62.6119 65.4701 62.9108 65.0217 63.5087C64.5733 64.2561 64.2743 65.0034 63.6764 65.6013C62.3312 66.9466 60.3881 67.8434 58.7439 68.4413C56.5018 69.3381 54.5587 70.2349 52.4661 71.4307C49.4767 73.0749 46.9357 75.018 43.4978 75.1675C42.3021 75.1675 41.1063 75.018 39.9105 75.1675C38.4158 75.3169 37.0706 75.9148 35.7254 76.2137C34.5296 76.5127 33.1844 76.6622 31.9886 76.9611C29.896 77.26 28.2518 78.0074 26.3087 78.4558C23.7677 79.0537 21.0772 78.9042 18.3868 79.3526C15.9952 79.6516 14.0521 79.9505 11.6606 79.3526C8.07327 78.4558 6.13013 76.8116 6.87749 72.9254C7.3259 70.3844 7.17647 68.4413 5.9807 66.6476C3.14075 72.7759 1.19761 79.5021 0.300781 86.3778C1.94496 87.1251 3.88808 87.4241 5.53226 87.5735C10.7637 88.1714 16.4436 85.7799 21.2267 83.9862C23.6182 83.0894 26.1592 81.7442 28.8497 81.4452C31.6897 81.1463 34.0812 81.4452 36.9211 80.8473C46.4873 78.4558 55.9039 75.1675 64.5732 70.0854C68.1605 67.9929 69.6552 65.0034 72.1963 62.014C74.2888 59.3235 76.8298 57.231 79.3708 54.9889C81.9118 52.7468 84.1539 50.6542 85.6486 47.6648C87.2928 44.5259 88.638 40.9386 89.3854 37.5008C90.1327 33.6146 89.0864 30.0273 87.1433 27.0378ZM86.6949 36.604C86.5455 37.3513 86.396 38.2482 86.2465 38.9955C85.6486 40.9386 84.4529 42.8818 82.6592 43.7786C81.9118 44.227 80.7161 43.9281 80.2677 43.1807C79.9687 42.7323 79.9688 42.1344 79.9688 41.686C79.8193 40.6397 79.6698 39.7429 79.6698 38.6966C79.6698 36.305 79.6698 33.9135 79.3708 31.522C79.6698 32.8672 79.3709 29.4294 81.4635 28.5326C82.5098 28.0841 84.0044 28.5326 84.7518 29.2799C85.6486 30.3262 85.9476 31.9704 86.2465 33.1662C86.5454 34.5114 86.8444 35.4082 86.6949 36.604Z" fill="url(#paint4_linear_6_2000)"/>
<path opacity="0.4" fill-rule="evenodd" clip-rule="evenodd" d="M76.3795 149.754C76.23 149.754 75.9311 149.903 75.7816 149.903L77.1268 150.052C77.1268 149.903 76.8279 149.754 76.3795 149.754ZM76.3795 149.754C76.23 149.754 75.9311 149.903 75.7816 149.903L77.1268 150.052C77.1268 149.903 76.8279 149.754 76.3795 149.754ZM139.456 78.7549C139.456 80.5485 138.858 82.4917 138.858 84.2853C138.858 86.8263 138.41 88.7694 137.812 91.161C137.364 92.8051 136.467 94.0009 136.018 95.6451C135.421 97.4387 134.524 99.0829 133.627 100.727C131.833 104.015 129.89 107.453 129.143 111.19C128.395 114.628 128.246 117.468 126.602 120.607C124.958 123.596 122.566 126.137 120.772 129.127C120.025 130.472 119.427 130.472 118.082 131.369C116.737 132.415 115.391 133.91 114.046 134.956C111.206 137.198 108.516 138.842 104.928 140.187C102.686 141.084 100.594 141.682 98.2022 141.981C96.7075 142.28 95.2128 141.981 93.7181 142.28C91.3266 142.728 89.0845 143.326 86.693 144.074C82.9562 145.269 79.07 146.017 75.3332 147.213C72.6427 147.96 70.1017 148.558 67.4112 149.006C65.7671 149.305 64.4219 150.202 62.7777 149.903C61.1335 149.604 59.4893 149.006 57.8451 148.408C55.7525 147.81 53.9589 147.661 51.7168 147.661C48.7274 147.661 45.1401 148.109 42.0012 147.511C38.5634 146.914 35.275 145.867 31.8372 145.269C29.7446 144.821 28.2499 143.924 26.3068 143.177C24.5131 142.28 22.7195 142.131 20.7764 141.533C18.8333 140.935 16.8901 140.038 14.947 139.59C17.9364 143.476 21.3743 147.063 25.2605 150.202C35.275 158.722 47.6811 164.402 61.4324 166.195C63.2261 166.345 65.0197 166.644 66.9628 166.644C70.9986 165.747 74.8848 164.551 78.9205 163.355C85.6467 161.263 91.4761 157.227 98.2022 155.284C100.743 154.537 102.985 153.789 105.227 152.593C107.021 151.697 108.815 151.547 110.459 150.8C116.737 148.109 121.37 142.131 124.21 136.152C125.406 133.461 126.602 130.472 128.993 128.379C129.89 127.482 131.086 126.884 131.833 125.838C132.73 124.792 133.328 123.596 134.225 122.4C135.719 120.457 137.065 118.365 138.41 116.422C138.559 116.123 138.709 115.973 138.858 115.674C140.652 109.396 141.549 102.82 141.549 96.0935C141.549 89.9652 140.801 84.2853 139.456 78.7549ZM74.4364 150.202C74.7353 150.052 75.0343 149.754 75.3332 149.604C75.6322 149.455 76.0806 149.604 76.3795 149.754C76.9774 149.604 77.4258 149.604 77.8742 149.903C78.1731 150.052 78.6216 150.351 78.771 150.65C78.9205 150.949 78.7711 151.099 78.4721 151.398C78.1732 151.697 78.0237 151.697 77.5753 151.697C76.8279 151.846 76.0806 151.996 75.1837 151.846C74.7353 151.846 73.988 151.697 73.689 151.398C73.689 150.8 74.1374 150.501 74.4364 150.202ZM79.07 159.469C78.6216 160.067 78.1732 160.665 77.5753 160.964C76.9774 161.412 76.3795 161.562 75.9311 162.01C74.4364 162.757 72.9417 163.654 71.447 164.103C70.8491 164.252 70.1018 164.252 69.5039 164.252C68.7565 164.402 67.8597 164.402 67.1123 164.402C66.2155 164.402 65.1692 164.551 64.2724 164.701C63.3756 164.701 62.3292 164.85 61.4324 164.85C59.7882 165 58.443 164.701 56.9483 164.103C55.603 163.654 54.2578 162.907 53.0621 162.16C52.1653 161.562 51.4179 160.814 50.82 160.067C50.0727 159.469 49.6242 158.722 49.1758 157.825C49.0264 157.526 48.8769 157.227 49.0263 156.779C49.0263 156.629 49.1758 156.48 49.1758 156.48C49.4748 156.33 49.7737 156.031 49.9232 156.031C50.3716 155.732 50.9695 155.732 51.5674 155.583C52.9126 155.433 54.2578 155.583 55.6031 155.732C56.3504 155.732 57.0978 155.882 57.8451 155.732C58.8914 155.583 59.9377 155.284 60.8345 154.985C63.2261 154.387 65.6176 153.789 68.0092 153.64C70.4007 153.341 73.0912 153.042 75.4827 153.49C76.3795 153.64 77.5753 153.939 78.3226 154.387C78.9205 154.836 79.3689 155.433 79.6679 156.031C80.1163 157.227 79.8173 158.423 79.07 159.469ZM97.9033 153.341C97.4549 153.789 96.857 154.088 96.2591 154.537C95.5118 155.134 94.7644 155.433 94.0171 155.882C93.4192 156.33 92.6718 156.629 92.0739 156.928C91.3266 157.227 90.7287 157.526 89.9813 157.974C89.234 158.273 88.4866 158.572 87.7393 158.871C87.1414 159.021 86.5435 159.32 85.9457 159.17C85.4972 159.021 84.8993 158.871 84.6004 158.572C84.0025 157.974 84.152 157.377 84.3015 157.078C84.3015 156.629 84.152 155.882 84.3015 155.284C84.4509 154.985 84.7499 154.537 84.8993 154.238C85.4972 153.042 86.3941 152.295 87.2909 151.398C88.0382 150.65 88.9351 150.052 89.9813 149.604C91.1771 149.156 92.6718 149.006 93.8676 148.857C95.2128 148.707 97.6044 148.558 98.3517 150.202C98.8001 151.248 98.6507 152.295 97.9033 153.341ZM77.2763 149.903C77.1269 149.903 76.8279 149.754 76.529 149.604C76.3795 149.604 76.0806 149.754 75.9311 149.754L77.2763 149.903Z" fill="url(#paint5_linear_6_2000)"/>
<path opacity="0.4" fill-rule="evenodd" clip-rule="evenodd" d="M133.777 63.658V63.9569C133.628 65.9 132.88 67.2453 132.133 69.0389C131.535 70.5336 130.937 71.7294 130.19 73.0746C128.994 75.3167 128.396 77.4093 127.499 79.9503C126.005 83.6871 125.407 87.7228 123.165 91.1606C121.221 94.2995 120.624 98.0363 119.129 101.325C117.335 105.061 114.495 107.602 111.506 110.293C110.161 111.489 108.965 112.983 107.769 114.329C106.424 115.674 105.527 117.467 103.883 118.663C100.595 121.055 96.8577 123.147 93.5693 125.688C91.6262 127.183 90.281 129.276 88.0389 130.471C85.9464 131.817 83.5548 132.713 81.4622 133.909C79.5191 135.105 77.576 136.301 75.4834 137.198C73.0919 138.094 71.1487 137.796 68.6077 137.945C65.9173 138.094 63.0773 138.842 60.5363 139.739C58.4437 140.486 56.6501 141.233 54.408 140.486C52.9133 140.038 51.7175 138.991 50.2228 138.692C46.6355 137.945 42.7493 138.692 39.162 138.543C36.322 138.393 33.3326 137.796 30.4927 137.198C27.8022 136.749 25.5601 134.806 23.0191 134.059C19.7308 133.162 15.994 133.909 13.0046 132.713C11.6593 132.265 10.4636 131.219 9.41729 130.471C9.11835 130.322 8.96888 130.172 8.66994 130.023C8.22152 129.276 7.77312 128.379 7.32471 127.631C8.07206 127.93 8.81942 128.229 9.56677 128.678C13.6025 130.621 18.6845 130.322 23.0191 131.069C27.9517 131.966 32.8842 133.162 37.8167 133.76C39.9093 134.059 41.8525 133.909 43.9451 133.76C46.785 133.461 49.6249 133.461 52.4649 133.012C57.2479 132.116 62.031 129.874 66.9636 130.471C67.8604 130.621 68.9067 131.069 69.8035 131.069C71.1487 131.069 72.1951 129.874 73.2413 129.126C75.1845 127.93 77.277 128.08 79.0707 126.436C80.7149 124.792 82.658 123.745 84.7506 122.699C90.1315 120.008 94.4662 115.524 98.8008 111.19C102.388 107.602 105.826 103.866 108.218 99.531C110.609 95.1963 110.161 89.9648 111.954 85.4807C113.3 82.1923 114.346 79.2029 116.438 76.363C117.485 75.0178 118.68 73.822 119.727 72.4767C120.923 71.1315 121.52 69.6368 122.417 67.9926C123.314 66.199 124.659 64.7043 125.407 62.7611C126.154 60.9675 126.005 59.4728 126.005 57.5297C126.005 55.5865 126.005 53.494 126.005 51.4014C129.143 55.736 131.684 59.6223 133.777 63.658Z" fill="url(#paint6_linear_6_2000)"/>
<path opacity="0.4" fill-rule="evenodd" clip-rule="evenodd" d="M122.566 47.6654C121.819 46.918 121.071 46.0212 120.324 45.2738C114.943 39.8929 108.665 35.5582 101.79 32.1204C101.64 31.9709 101.491 31.9709 101.192 31.8214C100.145 31.373 99.0991 30.9246 98.0528 30.4762C96.5581 29.8783 95.2129 29.2804 93.7182 28.832C94.1666 29.131 94.7645 29.4299 94.914 29.4299C95.8108 29.8783 96.5581 30.1773 97.156 30.9246C97.7539 31.672 98.0528 32.2699 98.0528 33.3162C98.0528 34.213 98.2023 35.2593 98.3518 36.1561C98.5012 37.0529 98.9497 37.8003 99.0991 38.6971C99.2486 39.1455 99.2486 39.5939 99.3981 40.1918C99.697 41.3876 100.145 42.5834 100.444 43.7791C100.893 46.0212 99.697 47.8148 98.9496 49.7579C97.7539 52.8968 97.0065 56.0357 95.9602 59.3241C95.2129 61.8651 93.8677 64.4061 91.9245 66.3492C89.9814 68.1429 87.1414 68.5913 85.4973 70.5344C84.0026 72.328 82.2089 73.9722 80.1163 74.869C77.7248 76.0648 75.0343 76.9616 72.4933 77.709C70.6997 78.3069 68.7565 78.3069 66.8134 78.7553C64.4219 79.3532 62.3293 80.5489 60.2367 81.4458C57.8452 82.4921 55.7526 83.6878 53.361 84.7341C50.9695 85.7804 48.8769 87.1256 46.4854 88.0225C45.2896 88.4709 44.0939 88.7698 43.0476 89.0688C40.656 89.9656 38.414 91.4603 35.873 91.7592C34.9762 91.9087 34.0793 92.0582 33.1825 92.0582C32.4351 92.0582 31.8373 92.2077 31.2394 92.3571C28.9973 93.254 27.6521 95.6455 25.1111 95.795C22.7195 95.795 20.4775 95.6455 18.2354 95.9444C17.0396 96.0939 15.9934 95.9444 14.9471 96.0939C14.6481 96.0939 14.1997 96.2434 13.9008 96.0939C13.6018 95.9444 13.1534 95.6455 12.705 95.3465C11.8082 94.8981 11.0608 94.3002 10.3135 93.7024C8.81877 92.5066 6.87566 93.2539 5.23148 92.8055C4.78307 92.6561 4.0357 92.8055 3.58729 92.5066C2.54099 91.9087 1.19574 90.5635 0.298914 89.8161C0.149443 91.7592 0 93.7024 0 95.6455C0 99.0833 0.298942 102.372 0.747354 105.66C0.896825 107.155 1.19577 108.649 1.49471 110.294C1.94312 112.386 2.54097 114.628 3.13885 116.571C4.03568 119.411 5.08198 122.251 6.27775 124.942C8.22087 125.241 10.164 125.54 12.1071 125.241C14.947 124.792 17.6375 124.344 20.4775 124.493C23.1679 124.643 25.5595 125.54 28.1005 125.988C30.9404 126.436 33.9298 126.885 36.9193 127.034C39.6097 127.184 42.3002 127.483 44.8412 127.782C46.7844 128.081 48.877 128.38 50.8201 128.529C56.0516 128.828 61.1335 127.483 66.2155 127.034C68.7566 126.735 71.2976 126.138 73.8386 125.54C75.3333 125.241 76.828 124.792 78.1732 123.895C79.9669 122.7 81.1626 121.056 82.6573 119.71C84.451 118.216 86.2446 116.721 88.0383 115.376C89.533 114.18 91.0277 112.835 92.6719 111.788C93.8677 111.041 95.2129 110.144 96.4087 109.247C98.6507 107.454 100.594 105.361 102.537 103.119C105.227 99.9801 106.274 95.6455 107.32 91.7592C108.366 88.1719 108.964 84.7341 110.907 81.4458C111.804 79.951 112.551 78.1574 113 76.3637C113.299 75.3175 113.448 73.9722 113.897 72.9259C114.644 71.2817 116.288 69.9365 117.185 68.4418C117.932 67.246 118.829 66.0503 119.278 64.5555C120.324 61.8651 121.071 59.1746 121.52 56.1852C121.819 54.0926 122.566 52 123.164 49.9074C123.313 49.6085 123.313 49.1601 123.463 48.8611C123.463 48.7116 123.014 48.1138 122.566 47.6654ZM30.3426 96.0939C30.492 95.795 33.1825 94.7487 33.4815 94.5992C33.4815 94.5992 33.4814 94.5992 33.332 94.5992L31.5383 95.3465C33.4814 94.7487 36.9193 96.6918 35.2751 98.7844C34.8267 99.3822 33.4815 99.6812 32.7341 99.8307C31.9867 99.9801 31.5383 99.6812 31.0899 99.0833C30.6415 98.4854 30.3426 97.5886 30.3426 96.8413C30.3426 96.6918 30.3426 96.2434 30.3426 96.0939ZM9.26716 115.077C7.17457 114.479 5.82933 113.731 4.63356 111.938C3.73673 110.742 3.13888 109.696 2.83994 108.351C2.69047 107.155 2.24203 106.258 2.54098 105.062C2.69045 104.165 3.13888 103.119 3.58729 102.372C4.0357 101.475 4.78304 100.429 4.78304 100.13C6.87563 99.9801 8.81875 99.8307 10.7619 99.8307C13.0039 99.8307 15.3955 100.13 17.6375 100.13C18.6838 100.13 19.7301 100.13 20.7764 99.9801C21.8227 99.8307 22.7196 99.5317 23.7658 99.3823C25.5595 99.0833 27.2037 98.9338 28.8478 99.6812C30.0436 100.279 30.6415 101.774 31.2394 102.97C31.5383 103.717 31.8373 104.165 31.8373 105.062C31.8373 106.108 31.8373 107.005 31.6878 107.902C31.6878 108.201 31.5383 108.649 31.5383 108.948C30.0436 112.087 26.1574 113.134 23.168 114.329C18.6839 116.123 13.7513 116.272 9.26716 115.077ZM41.1045 121.952C40.2076 124.344 36.3214 125.091 34.0793 125.241C33.033 125.241 31.6878 125.091 30.6415 124.493C30.0436 124.194 29.5952 123.597 29.1468 122.999C28.8479 122.55 28.3994 121.803 27.2037 122.102C27.5026 120.757 27.8016 119.561 28.3995 118.365C28.8479 117.767 29.4457 117.319 30.0436 116.721C31.0899 115.824 32.2857 114.927 33.4815 114.329C35.4246 113.283 37.5172 114.03 39.3108 114.927C40.656 115.525 41.5529 116.422 41.8518 117.767C42.3002 119.411 41.7024 120.458 41.1045 121.952ZM67.4113 121.504C66.6639 123.148 65.6177 123.597 64.123 124.493C62.3293 125.39 59.9378 126.138 57.9947 126.138C56.9484 126.138 55.9021 125.689 55.0052 125.241C54.4074 124.942 53.66 124.792 53.2116 124.344C51.8663 122.999 51.5674 121.205 52.4642 121.504C51.8663 120.308 51.5674 119.112 51.4179 117.917C51.7169 117.767 51.8663 117.468 51.8663 117.169C52.6137 115.824 53.9589 114.628 55.4536 113.881C57.8452 112.536 60.9841 112.237 63.6745 113.433C64.8703 113.881 65.6177 114.479 66.365 115.376C66.8134 115.824 67.2618 116.123 67.7103 116.721C68.1587 117.917 67.8597 120.159 67.4113 121.504ZM75.3333 121.205C74.8849 121.504 74.1375 122.102 73.6891 122.102C73.2407 121.952 72.4933 121.205 72.4933 120.607L72.1944 120.308C72.7923 119.262 73.3902 118.365 73.9881 117.319C74.8849 117.767 75.7817 117.618 76.3795 118.664C77.1269 119.71 76.0806 120.607 75.3333 121.205ZM95.5118 74.1217C94.7645 75.168 93.7182 76.2143 92.5224 76.6627C91.0277 77.2606 88.9351 77.8585 88.7857 75.4669C88.7857 74.1217 88.9351 73.0754 89.533 71.8796C90.4298 70.086 91.1772 69.6376 92.9708 68.7407C93.5687 68.7407 94.3161 69.0397 94.7645 69.1892C95.6613 69.4881 96.5581 70.3849 96.7076 71.4312C96.8571 72.4775 96.1097 73.3743 95.5118 74.1217ZM114.196 64.1071C113.448 66.4987 112.402 68.7407 111.356 70.8333C110.16 73.5238 110.01 76.3638 109.263 79.2037C108.964 80.8479 108.067 82.6415 106.573 83.2394C105.825 83.5383 105.227 83.3889 104.48 83.3889C103.733 83.3889 102.537 83.6878 102.537 84.2857C102.089 83.0899 101.491 81.5952 101.192 80.3995C100.893 79.0542 100.743 77.5595 100.594 76.0648C100.295 74.5701 100.295 73.0754 100.145 71.5807C99.996 70.2354 99.697 68.7407 99.697 67.3955C99.697 62.7619 102.387 56.9325 106.722 54.8399C108.067 54.2421 109.413 53.9431 110.907 54.0926C112.551 54.3915 113.598 54.84 114.345 56.4841C115.242 58.7262 114.794 61.7156 114.196 64.1071Z" fill="url(#paint7_linear_6_2000)"/>
<path opacity="0.4" fill-rule="evenodd" clip-rule="evenodd" d="M93.8226 70.251C93.6731 70.4004 93.3742 70.4004 93.2247 70.5499C92.7763 70.5499 92.4774 70.4004 92.1785 70.5499L93.8226 70.251Z" fill="url(#paint8_linear_6_2000)"/>
<path fill-rule="evenodd" clip-rule="evenodd" d="M73.3467 104.63C70.3573 103.135 73.7951 89.8321 76.7846 86.8427C79.774 83.8533 87.6959 90.7289 88.5927 96.2594C89.639 101.939 80.3719 107.918 73.3467 104.63Z" fill="url(#paint9_linear_6_2000)"/>
<path opacity="0.4" fill-rule="evenodd" clip-rule="evenodd" d="M4.63436 100.13C4.48489 100.13 4.33545 100.13 4.33545 100.13C4.63439 99.9802 4.63436 99.9802 4.63436 100.13Z" fill="url(#paint10_linear_6_2000)"/>
<path fill-rule="evenodd" clip-rule="evenodd" d="M84.3022 26.4403L96.7083 21.5078C96.7083 21.5078 116.438 29.1308 128.994 46.021L129.741 56.7829C129.741 56.7829 106.125 47.6652 84.3022 26.4403Z" fill="url(#paint11_linear_6_2000)"/>
<path fill-rule="evenodd" clip-rule="evenodd" d="M129.443 135.703C129.443 135.703 118.98 147.063 111.207 149.454L104.78 151.397C104.78 151.397 75.3343 140.785 73.6901 122.4C72.3449 106.855 98.8012 83.0892 105.976 80.2492C113.15 77.4093 121.521 79.0535 121.521 79.0535L129.443 135.703Z" fill="url(#paint12_linear_6_2000)"/>
<path fill-rule="evenodd" clip-rule="evenodd" d="M121.521 79.0535C115.243 77.1104 88.4881 89.5165 81.1641 117.169C79.6694 122.848 93.2712 144.223 109.564 149.454C114.944 151.248 139.757 129.575 140.803 114.927C141.849 100.278 130.788 82.0429 121.521 79.0535Z" fill="url(#paint13_linear_6_2000)"/>
<path fill-rule="evenodd" clip-rule="evenodd" d="M82.957 120.458C86.8432 89.0691 115.392 78.7556 121.67 80.6987C126.154 82.1934 132.731 88.7701 136.617 95.1974C132.731 87.126 126.901 80.5493 121.67 78.9051C115.392 76.962 88.6369 89.368 81.3128 117.02C80.8644 118.963 82.0601 122.849 84.7506 127.334C83.1064 124.494 82.6581 121.953 82.957 120.458Z" fill="url(#paint14_linear_6_2000)"/>
<path opacity="0.3" fill-rule="evenodd" clip-rule="evenodd" d="M30.3438 154.238C30.3438 154.238 36.7711 156.63 41.4046 155.285C41.4046 155.285 43.1983 140.188 37.5184 130.473C31.8385 120.757 22.1229 135.405 22.1229 135.405L19.8809 144.672C19.8809 144.672 25.2618 151.1 30.3438 154.238Z" fill="black"/>
<path fill-rule="evenodd" clip-rule="evenodd" d="M35.8741 151.846L39.9098 150.8C39.9098 150.8 41.8529 142.429 38.4151 132.863C34.5288 122.101 20.1796 114.03 18.087 113.88C15.9944 113.731 13.9019 118.514 13.9019 118.514L35.8741 151.846Z" fill="url(#paint15_linear_6_2000)"/>
<path fill-rule="evenodd" clip-rule="evenodd" d="M100.594 160.067L93.7183 168.886C93.7183 168.886 81.9102 174.566 69.9525 171.876L61.2832 166.046L100.594 160.067Z" fill="url(#paint16_linear_6_2000)"/>
<path fill-rule="evenodd" clip-rule="evenodd" d="M10.9127 125.091C11.6601 121.803 14.5 116.422 17.041 115.824C19.582 115.226 31.8386 126.885 34.6786 134.358C37.5185 141.832 36.0238 150.053 35.8744 151.697C35.7249 153.341 21.9736 148.707 14.9485 143.028C8.0728 137.348 10.9127 125.091 10.9127 125.091Z" fill="url(#paint17_linear_6_2000)"/>
<path fill-rule="evenodd" clip-rule="evenodd" d="M34.6777 134.358C31.8378 126.884 19.7307 115.375 17.0402 115.823C15.9939 115.973 14.9476 117.019 14.0508 118.215C14.6487 117.617 15.2465 117.318 15.8444 117.169C18.3854 116.571 30.7915 125.838 33.6315 133.311C37.0693 142.429 35.1262 149.006 34.8272 151.995C35.4251 151.995 35.8735 151.995 35.8735 151.696C36.023 150.052 37.5177 141.831 34.6777 134.358Z" fill="url(#paint18_linear_6_2000)"/>
<path fill-rule="evenodd" clip-rule="evenodd" d="M76.0821 101.773C73.6906 100.578 76.381 89.5168 78.7726 86.9758C81.1641 84.5842 87.4418 90.2641 88.3387 94.8977C89.2355 99.5313 81.762 104.464 76.0821 101.773Z" fill="url(#paint19_linear_6_2000)"/>
<path fill-rule="evenodd" clip-rule="evenodd" d="M96.7083 21.5078C96.7083 21.5078 97.3062 28.9813 105.826 38.2485C114.346 47.5157 128.994 46.021 128.994 46.021L129.741 56.7829C129.741 56.7829 98.6514 43.0316 84.3022 26.4403L96.7083 21.5078Z" fill="url(#paint20_linear_6_2000)"/>
<path fill-rule="evenodd" clip-rule="evenodd" d="M121.073 88.321C120.774 88.62 119.877 89.2178 120.625 89.6663C120.774 89.8157 120.924 89.6663 121.073 89.8157C121.223 89.8157 121.223 89.9652 121.372 89.9652C121.821 89.6663 121.671 88.1716 121.073 88.321Z" fill="#0EDBFF"/>
<path fill-rule="evenodd" clip-rule="evenodd" d="M150.369 75.7654C150.07 76.0644 149.174 76.6623 149.921 77.1107C150.07 77.2601 150.22 77.1107 150.369 77.2601C150.519 77.2601 150.519 77.4096 150.668 77.4096C151.266 76.9612 150.967 75.616 150.369 75.7654Z" fill="#0EDBFF"/>
<path fill-rule="evenodd" clip-rule="evenodd" d="M137.515 127.782C137.216 128.081 136.319 128.679 137.067 129.127C137.216 129.277 137.366 129.127 137.515 129.277C137.665 129.277 137.665 129.426 137.814 129.426C138.412 129.127 138.113 127.632 137.515 127.782Z" fill="#0EDBFF"/>
<path fill-rule="evenodd" clip-rule="evenodd" d="M123.614 93.5528C123.913 93.4033 124.063 93.4033 124.362 93.4033C124.362 93.7023 124.661 94.3001 124.212 94.5991C123.913 94.7486 123.913 94.1507 123.764 94.0012L123.614 93.5528Z" fill="#0EDBFF"/>
<path fill-rule="evenodd" clip-rule="evenodd" d="M77.1287 96.6919C77.5772 96.8414 78.0256 97.1404 78.474 97.2898C78.6235 97.1404 78.773 97.1404 79.0719 97.1404C79.3708 96.9909 79.5203 96.6919 79.5203 96.393C79.6698 95.9446 79.5203 95.6456 79.2214 95.3467C79.0719 95.1972 78.9224 94.8983 78.7729 94.7488C78.6235 94.5994 78.175 94.5994 77.8761 94.7488C77.5772 94.8983 77.4277 95.1972 77.2782 95.4962C77.1288 95.7951 76.8298 96.0941 76.8298 96.393C76.8298 96.6919 77.1288 96.9909 77.2782 97.2898L77.1287 96.6919Z" fill="#0EDBFF"/>
<path fill-rule="evenodd" clip-rule="evenodd" d="M11.0626 131.966C11.511 132.116 11.9594 132.415 12.4079 132.564C12.5573 132.415 12.7068 132.415 13.0057 132.415C13.3047 132.265 13.4542 131.966 13.4542 131.667C13.6036 131.219 13.4542 130.92 13.1552 130.621C13.0057 130.472 12.8563 130.173 12.7068 130.023C12.5573 129.874 12.1089 129.874 11.81 130.023C11.511 130.173 11.3616 130.472 11.2121 130.771C11.0626 131.07 10.7637 131.368 10.7637 131.667C10.7637 131.966 11.0626 132.265 11.2121 132.564L11.0626 131.966Z" fill="#0EDBFF"/>
<path fill-rule="evenodd" clip-rule="evenodd" d="M139.757 150.351C140.206 150.501 140.654 150.8 141.102 150.949C141.252 150.8 141.401 150.8 141.7 150.8C141.999 150.65 142.149 150.351 142.149 150.052C142.298 149.604 142.149 149.305 141.85 149.006C141.7 148.856 141.551 148.557 141.401 148.408C141.252 148.259 140.804 148.259 140.505 148.408C140.206 148.557 140.056 148.856 139.907 149.155C139.757 149.454 139.458 149.753 139.458 150.052C139.458 150.351 139.757 150.65 139.907 150.949L139.757 150.351Z" fill="#0EDBFF"/>
<path fill-rule="evenodd" clip-rule="evenodd" d="M130.49 137.498C130.938 137.647 131.386 137.946 131.835 138.095C131.984 137.946 132.134 137.946 132.433 137.946C132.732 137.797 132.881 137.498 132.881 137.199C133.031 136.75 132.881 136.451 132.582 136.152C132.433 136.003 132.283 135.704 132.134 135.554C131.984 135.405 131.536 135.405 131.237 135.554C130.938 135.704 130.789 136.003 130.639 136.302C130.49 136.601 130.191 136.9 130.191 137.199C130.191 137.498 130.49 137.797 130.639 138.095L130.49 137.498Z" fill="#0EDBFF"/>
<path fill-rule="evenodd" clip-rule="evenodd" d="M2.09437 48.4129C3.29014 48.8613 4.48589 49.3097 5.68166 49.9076C6.13007 49.6086 6.57848 49.6086 7.02689 49.3097C7.62477 48.8613 8.07318 48.1139 8.37212 47.516C8.67106 46.4698 8.22266 45.7224 7.77424 44.975C7.4753 44.5266 7.17639 43.7793 6.72797 43.3309C6.13009 42.8824 5.0838 43.0319 4.48591 43.3309C3.73856 43.6298 3.29014 44.3772 2.84172 44.975C2.39331 45.5729 1.94488 46.6192 1.79541 47.3666C1.79541 48.1139 2.39332 49.0107 2.9912 49.4592L2.09437 48.4129Z" fill="#0EDBFF"/>
<path fill-rule="evenodd" clip-rule="evenodd" d="M80.118 5.36501C81.3138 5.81342 82.5096 6.26184 83.7053 6.85972C84.1538 6.56078 84.6022 6.56078 85.0506 6.26184C85.6485 5.81343 86.0969 5.06607 86.3958 4.46819C86.6947 3.42189 86.2463 2.67454 85.7979 1.92718C85.499 1.47877 85.2 0.731419 84.7516 0.283007C84.1537 -0.165406 83.1074 -0.0159349 82.5095 0.283007C81.7622 0.581948 81.3138 1.3293 80.8654 1.92718C80.4169 2.52507 79.9686 3.57137 79.8191 4.31872C79.8191 5.06607 80.417 5.9629 81.0148 6.41131L80.118 5.36501Z" fill="#0EDBFF"/>
<path fill-rule="evenodd" clip-rule="evenodd" d="M90.4318 108.351C90.2824 108.5 90.1329 108.65 89.9834 108.949C90.1329 109.248 90.2823 109.397 90.5813 109.546C90.7307 109.546 90.8802 109.546 91.0297 109.546C91.1792 109.397 91.0297 109.248 91.1792 109.098C91.3287 108.799 91.3287 108.65 91.1792 108.351C91.0297 108.201 91.0297 108.052 90.8802 108.052C90.7308 108.052 90.4318 108.052 90.4318 108.201V108.351Z" fill="#0EDBFF"/>
<path fill-rule="evenodd" clip-rule="evenodd" d="M91.4779 115.824C91.4779 115.974 91.0294 116.871 91.4779 116.572C91.7768 116.422 91.7768 115.974 91.4779 115.824C91.6273 115.824 91.6273 115.824 91.4779 115.824Z" fill="#0EDBFF"/>
<path fill-rule="evenodd" clip-rule="evenodd" d="M114.945 129.276C114.646 129.725 114.646 129.874 114.497 130.323C114.646 130.472 114.945 130.472 115.095 130.472C115.393 130.472 115.393 130.323 115.393 130.173C115.393 130.024 115.543 129.725 115.393 129.575C115.244 129.276 115.094 129.127 114.945 129.276Z" fill="#0EDBFF"/>
<path fill-rule="evenodd" clip-rule="evenodd" d="M95.2146 109.247C95.3641 109.397 95.5136 109.546 95.5136 109.845C95.2146 109.845 95.2146 109.696 95.2146 109.397C95.2146 109.098 95.3641 109.247 95.5136 108.948C95.5136 108.948 95.5136 108.948 95.663 108.948L95.2146 109.247Z" fill="#0EDBFF"/>
<path fill-rule="evenodd" clip-rule="evenodd" d="M117.635 89.2179C117.486 89.3674 117.336 89.5169 117.187 89.6663C117.336 89.8158 117.187 90.1147 117.486 90.1147C117.635 90.1147 117.785 89.9653 117.934 89.6663C118.084 89.5169 118.084 89.3674 118.084 89.0684C118.084 88.919 118.084 88.4706 117.934 88.7695L117.635 89.2179Z" fill="#0EDBFF"/>
<path fill-rule="evenodd" clip-rule="evenodd" d="M114.497 37.0528C114.796 37.0528 114.945 36.9033 115.244 36.9033C115.244 36.9033 115.393 36.9033 115.543 36.9033C115.842 36.9033 115.842 36.9033 115.842 37.0528C115.991 37.2023 115.991 37.5012 115.991 37.6507C115.842 38.5475 114.646 37.2023 115.095 36.9033L114.497 37.0528Z" fill="#0EDBFF"/>
<path fill-rule="evenodd" clip-rule="evenodd" d="M19.433 38.6968C18.9846 38.8462 18.3867 38.8462 18.3867 39.2946C18.3867 39.7431 18.9846 40.042 19.2836 40.1915C19.8814 40.3409 20.7782 40.4904 21.0772 39.7431C21.2266 39.2946 21.0772 38.5473 20.9277 38.2483C20.4793 37.501 19.433 37.7999 18.6857 38.0989L19.433 38.6968Z" fill="#0EDBFF"/>
<path fill-rule="evenodd" clip-rule="evenodd" d="M120.326 130.174C120.176 128.828 119.877 127.483 121.073 126.736C121.671 126.287 122.867 126.287 123.614 126.736C124.063 127.035 124.511 127.633 124.661 128.081C125.109 128.828 124.959 128.828 124.81 129.426C124.362 130.921 123.913 131.818 122.568 131.818C120.625 131.818 120.326 130.323 120.326 128.529V130.174Z" fill="#0EDBFF"/>
<path fill-rule="evenodd" clip-rule="evenodd" d="M121.222 92.0578C121.82 91.9083 122.269 91.6094 122.568 91.1609C122.119 90.862 121.372 90.4136 121.222 91.1609V92.0578Z" fill="#0EDBFF"/>
<path fill-rule="evenodd" clip-rule="evenodd" d="M14.052 126.586C14.6499 126.437 15.0983 126.138 15.3972 125.689C14.9488 125.39 14.2015 124.942 14.052 125.689V126.586Z" fill="#0EDBFF"/>
<path fill-rule="evenodd" clip-rule="evenodd" d="M14.052 137.945C14.6499 137.796 15.0983 137.497 15.3972 137.049C14.9488 136.75 14.2015 136.301 14.052 137.049V137.945Z" fill="#0EDBFF"/>
<path fill-rule="evenodd" clip-rule="evenodd" d="M94.1684 97.2894C94.7663 96.6915 95.5137 95.4957 96.4105 96.0936C97.0084 96.542 97.1578 97.4388 96.5599 97.8873C96.1115 98.1862 95.6631 98.3357 95.0652 98.4851C94.6168 98.6346 94.019 98.3357 94.1684 97.7378V97.2894Z" fill="#0EDBFF"/>
<path fill-rule="evenodd" clip-rule="evenodd" d="M111.956 126.586C112.553 125.988 113.301 124.793 114.198 125.39C114.795 125.839 114.945 126.736 114.347 127.184C113.899 127.483 113.45 127.633 112.852 127.782C112.404 127.931 111.806 127.633 111.956 127.035V126.586Z" fill="#0EDBFF"/>
<path fill-rule="evenodd" clip-rule="evenodd" d="M109.265 29.4297C110.012 29.5792 111.507 29.5792 111.358 30.7749C111.358 31.3728 110.461 32.1202 109.863 31.8212C109.265 31.5223 108.966 31.2233 108.518 30.7749C108.219 30.476 108.069 29.7286 108.817 29.5792L109.265 29.4297Z" fill="#0EDBFF"/>
<path fill-rule="evenodd" clip-rule="evenodd" d="M106.275 134.209C106.873 133.611 107.621 132.416 108.517 133.014C109.115 133.462 109.265 134.359 108.667 134.807C108.218 135.106 107.77 135.256 107.172 135.405C106.724 135.555 106.126 135.256 106.275 134.658V134.209Z" fill="#0EDBFF"/>
<path fill-rule="evenodd" clip-rule="evenodd" d="M82.0613 96.2428C81.4634 96.6913 80.2676 97.1397 80.1182 98.186C80.1182 98.7838 80.2676 99.0828 80.8655 99.3817C81.3139 99.5312 81.9118 99.5312 82.3602 99.3817C82.9581 99.0828 83.7055 98.4849 84.0044 97.887C84.1539 97.4386 84.1539 97.1397 84.0044 96.6912C83.8549 96.3923 83.7055 96.0934 83.4065 96.0934C82.5097 95.7944 82.0613 96.6913 81.4634 96.9902L82.0613 96.2428Z" fill="#0EDBFF"/>
<path fill-rule="evenodd" clip-rule="evenodd" d="M84.3032 93.8513C84.6021 94.0007 85.0505 94.1502 85.2 94.4491C84.9011 94.5986 84.4526 94.8976 84.0042 94.7481C83.5558 94.5986 83.4063 94.1502 83.5558 93.7018C83.5558 93.4028 84.0042 92.9544 84.3032 93.1039C84.4526 93.1039 84.4526 93.4028 84.4526 93.4028C84.6021 93.7018 84.6021 93.5523 84.4526 93.8513H84.3032Z" fill="#0EDBFF"/>
<path fill-rule="evenodd" clip-rule="evenodd" d="M102.838 89.8157C101.044 91.3104 99.3999 93.2535 98.5031 95.4956C98.0547 96.6913 98.8021 96.6913 99.8483 96.5418C101.791 96.0934 103.884 95.645 105.827 95.0471C107.023 94.7482 108.667 94.1503 109.414 93.104C110.012 92.3567 110.311 91.0114 110.162 90.1146C110.012 88.7694 108.966 88.321 107.77 87.8725C104.93 87.1252 101.044 90.1146 99.9978 92.6556L102.838 89.8157Z" fill="#0EDBFF"/>
<path fill-rule="evenodd" clip-rule="evenodd" d="M92.9727 99.9795C93.5706 99.9795 94.019 100.129 94.6169 100.428C94.4674 100.577 94.4674 100.876 94.4674 101.026C94.318 101.325 94.019 101.624 93.8695 101.773C93.4211 102.072 92.6738 102.222 92.2254 101.923C90.7307 101.325 92.9727 99.5311 93.5706 100.278L92.9727 99.9795Z" fill="#0EDBFF"/>
<path fill-rule="evenodd" clip-rule="evenodd" d="M9.86685 156.63C9.71738 156.779 9.56793 156.929 9.41846 157.228C9.56793 157.527 9.71739 157.676 10.0163 157.826C10.1658 157.826 10.3153 157.826 10.4648 157.826C10.6142 157.676 10.4647 157.527 10.6142 157.377C10.7637 157.078 10.7637 156.929 10.6142 156.63C10.4647 156.481 10.4648 156.331 10.3153 156.331C10.1658 156.331 9.86685 156.331 9.86685 156.481V156.63Z" fill="#0EDBFF"/>
<path fill-rule="evenodd" clip-rule="evenodd" d="M11.0628 164.103C11.0628 164.252 10.6144 165.149 11.0628 164.85C11.3618 164.7 11.2123 164.252 11.0628 164.103C11.0628 164.252 11.0628 164.103 11.0628 164.103Z" fill="#0EDBFF"/>
<path fill-rule="evenodd" clip-rule="evenodd" d="M14.6499 157.526C14.7994 157.676 14.9489 157.825 14.9489 158.124C14.6499 158.124 14.6499 157.975 14.6499 157.676C14.6499 157.377 14.7994 157.526 14.9489 157.228C14.9489 157.228 14.9488 157.228 15.0983 157.228L14.6499 157.526Z" fill="#0EDBFF"/>
<path fill-rule="evenodd" clip-rule="evenodd" d="M12.4078 148.259C13.0057 148.259 13.4541 148.408 14.052 148.707C13.9025 148.857 13.9025 149.156 13.9025 149.305C13.753 149.604 13.4541 149.903 13.3046 150.052C12.8562 150.351 12.1088 150.501 11.6604 150.202C10.1657 149.604 12.4078 147.81 13.0056 148.558L12.4078 148.259Z" fill="#0EDBFF"/>
<path fill-rule="evenodd" clip-rule="evenodd" d="M106.275 30.775C106.724 31.0739 107.322 31.3729 107.77 31.8213C108.219 32.4192 108.667 32.8676 108.966 33.4655C109.115 33.7644 109.564 34.5118 108.966 34.5118C108.368 34.6612 107.172 33.7644 106.574 33.316C105.678 32.7181 104.93 32.2697 104.332 31.3729C104.033 30.9245 103.585 30.1771 103.884 29.7287C104.183 29.2803 104.482 29.2803 104.93 29.2803C105.379 29.2803 105.678 29.4297 106.126 29.7287C106.276 29.8782 107.172 30.775 106.873 30.9245L106.275 30.775Z" fill="#0EDBFF"/>
<path fill-rule="evenodd" clip-rule="evenodd" d="M112.852 87.2754C112.553 87.4249 110.76 88.4712 111.656 88.9196C112.105 89.2185 113.151 89.069 113.6 88.9196C114.048 88.7701 114.496 88.4712 114.198 88.0227C113.6 86.9764 112.254 87.5743 111.507 88.0227L112.852 87.2754Z" fill="#0EDBFF"/>
<path fill-rule="evenodd" clip-rule="evenodd" d="M126.305 25.8418C125.707 26.2902 120.924 28.8312 123.166 30.027C124.361 30.6249 126.753 30.4754 127.949 29.8775C128.995 29.4291 130.191 28.6817 129.443 27.486C128.098 24.945 124.66 26.4397 122.867 27.486L126.305 25.8418Z" fill="#0EDBFF"/>
<path fill-rule="evenodd" clip-rule="evenodd" d="M14.7993 132.714C14.9488 133.761 15.2477 134.956 16.1445 135.704C17.1908 136.451 18.2371 136.152 19.2834 135.554C20.0308 135.106 20.6287 134.657 21.376 134.209C21.8244 133.91 22.1234 133.91 22.1234 133.312C22.1234 132.714 21.5255 131.817 21.2265 131.369C20.7781 130.771 19.8813 130.173 19.2834 129.874C17.7887 129.276 14.9488 129.874 14.9488 131.817L14.7993 132.714Z" fill="#0EDBFF"/>
<path fill-rule="evenodd" clip-rule="evenodd" d="M113.749 134.956C113.898 135.703 114.048 136.6 114.646 137.049C115.393 137.646 116.141 137.348 116.888 136.899C117.336 136.6 117.934 136.301 118.383 136.002C118.682 135.853 118.981 135.853 118.981 135.404C118.981 134.956 118.532 134.358 118.383 134.059C118.084 133.611 117.486 133.162 117.037 133.013C115.991 132.564 114.048 133.013 114.048 134.358L113.749 134.956Z" fill="#0EDBFF"/>
<path fill-rule="evenodd" clip-rule="evenodd" d="M96.8584 22.7031C96.8584 22.7031 100.147 36.4544 109.264 41.6859C120.774 48.2626 128.845 46.0206 128.845 46.0206C128.845 46.0206 118.532 45.7216 108.966 39.1449C101.044 33.6145 96.8584 22.7031 96.8584 22.7031Z" fill="url(#paint21_linear_6_2000)"/>
<path opacity="0.2" fill-rule="evenodd" clip-rule="evenodd" d="M75.1851 129.126L81.3134 120.158C81.3134 120.158 89.2353 142.579 109.563 149.604L105.079 152.444C105.229 152.444 84.3028 146.465 75.1851 129.126Z" fill="black"/>
<path opacity="0.3" fill-rule="evenodd" clip-rule="evenodd" d="M86.8435 29.4297C86.8435 29.4297 116.289 59.0249 137.514 72.1783C137.514 72.1783 135.422 64.1069 129.742 56.6334C129.742 56.7828 111.955 50.9535 86.8435 29.4297Z" fill="black"/>
<defs>
<linearGradient id="paint0_linear_6_2000" x1="23.6421" y1="57.8984" x2="23.6421" y2="33.3745" gradientUnits="userSpaceOnUse">
<stop stop-color="#9A00B3"/>
<stop offset="1" stop-color="#7F72FF"/>
</linearGradient>
<linearGradient id="paint1_linear_6_2000" x1="18.2148" y1="59.1407" x2="27.4297" y2="31.0086" gradientUnits="userSpaceOnUse">
<stop stop-color="#5B008B"/>
<stop offset="1" stop-color="#8E00FF"/>
</linearGradient>
<radialGradient id="paint2_radial_6_2000" cx="0" cy="0" r="1" gradientUnits="userSpaceOnUse" gradientTransform="translate(26.8261 62.7703) scale(113.75 113.75)">
<stop offset="0.00558659" stop-color="#60DBFF"/>
<stop offset="0.0937306" stop-color="#60D5FF"/>
<stop offset="0.211" stop-color="#5FC4FF"/>
<stop offset="0.3446" stop-color="#5DA9FF"/>
<stop offset="0.4903" stop-color="#5A82FF"/>
<stop offset="0.6442" stop-color="#5751FF"/>
<stop offset="0.6844" stop-color="#5643FF"/>
<stop offset="0.7432" stop-color="#563DF8"/>
<stop offset="0.8282" stop-color="#552EE5"/>
<stop offset="0.9287" stop-color="#5315C6"/>
<stop offset="1" stop-color="#5200AB"/>
</radialGradient>
<linearGradient id="paint3_linear_6_2000" x1="-0.131833" y1="76.4643" x2="101.732" y2="76.4643" gradientUnits="userSpaceOnUse">
<stop offset="0.0111732" stop-color="#81E0FF"/>
<stop offset="0.3224" stop-color="#82DDFF"/>
<stop offset="0.5506" stop-color="#86D4FF"/>
<stop offset="0.7523" stop-color="#8BC4FF"/>
<stop offset="0.9375" stop-color="#94ADFF"/>
<stop offset="1" stop-color="#97A4FF"/>
</linearGradient>
<linearGradient id="paint4_linear_6_2000" x1="0.51587" y1="56.421" x2="89.5718" y2="56.421" gradientUnits="userSpaceOnUse">
<stop stop-color="#B8C2FF"/>
<stop offset="1" stop-color="#7D72B3"/>
</linearGradient>
<linearGradient id="paint5_linear_6_2000" x1="14.9678" y1="122.709" x2="141.495" y2="122.709" gradientUnits="userSpaceOnUse">
<stop stop-color="#B8C2FF"/>
<stop offset="1" stop-color="#7D72B3"/>
</linearGradient>
<linearGradient id="paint6_linear_6_2000" x1="7.49495" y1="96.538" x2="133.768" y2="96.538" gradientUnits="userSpaceOnUse">
<stop stop-color="#B8C2FF"/>
<stop offset="1" stop-color="#7D72B3"/>
</linearGradient>
<linearGradient id="paint7_linear_6_2000" x1="-0.128694" y1="78.8925" x2="123.992" y2="78.8925" gradientUnits="userSpaceOnUse">
<stop stop-color="#B8C2FF"/>
<stop offset="1" stop-color="#7D72B3"/>
</linearGradient>
<linearGradient id="paint8_linear_6_2000" x1="92.0798" y1="70.4705" x2="93.7836" y2="70.4705" gradientUnits="userSpaceOnUse">
<stop stop-color="#E8DDFF"/>
<stop offset="1" stop-color="#AA8AD8"/>
</linearGradient>
<linearGradient id="paint9_linear_6_2000" x1="77.715" y1="106.137" x2="83.7734" y2="87.6413" gradientUnits="userSpaceOnUse">
<stop stop-color="#5B008B"/>
<stop offset="1" stop-color="#8E00FF"/>
</linearGradient>
<linearGradient id="paint10_linear_6_2000" x1="4.31139" y1="100.146" x2="4.66515" y2="100.146" gradientUnits="userSpaceOnUse">
<stop stop-color="#E8DDFF"/>
<stop offset="1" stop-color="#AA8AD8"/>
</linearGradient>
<linearGradient id="paint11_linear_6_2000" x1="84.2574" y1="39.1186" x2="129.705" y2="39.1186" gradientUnits="userSpaceOnUse">
<stop stop-color="#7F72FF"/>
<stop offset="1" stop-color="#9A00B3"/>
</linearGradient>
<linearGradient id="paint12_linear_6_2000" x1="94.5808" y1="148.217" x2="117.634" y2="77.8369" gradientUnits="userSpaceOnUse">
<stop stop-color="#280077"/>
<stop offset="1" stop-color="#812CFF"/>
</linearGradient>
<linearGradient id="paint13_linear_6_2000" x1="101.18" y1="146.785" x2="123.172" y2="79.6505" gradientUnits="userSpaceOnUse">
<stop stop-color="#7A00B3"/>
<stop offset="1" stop-color="#B136FF"/>
</linearGradient>
<linearGradient id="paint14_linear_6_2000" x1="108.756" y1="127.527" x2="108.756" y2="78.8985" gradientUnits="userSpaceOnUse">
<stop stop-color="#8E00B3"/>
<stop offset="1" stop-color="#E05CFF"/>
</linearGradient>
<linearGradient id="paint15_linear_6_2000" x1="22.7656" y1="147.474" x2="32.2884" y2="118.401" gradientUnits="userSpaceOnUse">
<stop stop-color="#280077"/>
<stop offset="1" stop-color="#812CFF"/>
</linearGradient>
<linearGradient id="paint16_linear_6_2000" x1="80.9918" y1="172.677" x2="80.9918" y2="160.083" gradientUnits="userSpaceOnUse">
<stop stop-color="#7A00B3"/>
<stop offset="0.9162" stop-color="#7006FC"/>
<stop offset="1" stop-color="#7006F9"/>
</linearGradient>
<linearGradient id="paint17_linear_6_2000" x1="23.3372" y1="152.12" x2="23.3372" y2="115.921" gradientUnits="userSpaceOnUse">
<stop stop-color="#7A00B3"/>
<stop offset="1" stop-color="#B136FF"/>
</linearGradient>
<linearGradient id="paint18_linear_6_2000" x1="25.2336" y1="152.105" x2="25.2336" y2="115.921" gradientUnits="userSpaceOnUse">
<stop stop-color="#8E00B3"/>
<stop offset="1" stop-color="#E05CFF"/>
</linearGradient>
<linearGradient id="paint19_linear_6_2000" x1="79.5719" y1="102.991" x2="84.5828" y2="87.6929" gradientUnits="userSpaceOnUse">
<stop stop-color="#A400CA"/>
<stop offset="1" stop-color="#B136FF"/>
</linearGradient>
<linearGradient id="paint20_linear_6_2000" x1="104.692" y1="48.5559" x2="111.924" y2="26.4785" gradientUnits="userSpaceOnUse">
<stop stop-color="#5B008B"/>
<stop offset="1" stop-color="#8E00FF"/>
</linearGradient>
<linearGradient id="paint21_linear_6_2000" x1="112.913" y1="46.3947" x2="112.913" y2="22.719" gradientUnits="userSpaceOnUse">
<stop stop-color="#B000D9"/>
<stop offset="1" stop-color="#E05CFF"/>
</linearGradient>
</defs>
</svg>
