<svg width="93" height="92" viewBox="0 0 93 92" fill="none" xmlns="http://www.w3.org/2000/svg">
<path fill-rule="evenodd" clip-rule="evenodd" d="M92.7208 56.211L92.3474 57.4249C92.3474 57.5182 92.3473 57.5183 92.254 57.6116C91.3202 60.7864 90.1064 63.7743 88.6124 66.5756C86.1846 71.1509 82.9165 75.3528 79.1815 78.901C74.7929 83.0095 69.564 86.2776 63.7748 88.4252C58.5458 90.3861 52.9433 91.5065 47.0607 91.5065C46.2204 91.5065 45.38 91.5065 44.5396 91.4132C43.3257 91.3198 42.1119 91.2264 40.898 91.0397C32.9612 90.0126 25.678 87.0246 19.5153 82.5426C18.955 82.0757 18.3948 81.7022 17.8345 81.2354C18.955 80.3016 21.196 80.2082 21.196 80.2082L18.0213 77.6871L10.0844 73.3919C8.59044 71.431 7.18983 69.3768 5.97596 67.2292C5.69584 66.6689 5.41572 66.2021 5.1356 65.6418C5.1356 65.6418 5.1356 65.6418 5.1356 65.5485C4.85547 64.9882 4.57536 64.4279 4.29523 63.8677C3.45486 62.0936 2.80122 60.2261 2.1476 58.2652C1.68073 56.8646 1.30725 55.464 1.02712 54.0634C0.840376 53.0363 0.653621 52.0092 0.466872 50.982C0.186749 48.8344 0 46.5934 0 44.3524C0 43.7922 0 43.3253 0 42.7651C0 42.0181 0.0933802 41.1777 0.0933802 40.4307C0.186755 39.6837 0.280112 38.9367 0.280112 38.1897C0.280112 38.0963 0.280112 38.0964 0.280112 38.003C0.466861 36.9759 0.560241 35.9487 0.840365 34.9216C1.12049 33.4276 1.494 32.027 1.96087 30.6264C2.52112 28.6655 3.2681 26.7047 4.10847 24.9306C4.94884 23.1564 5.88259 21.3823 6.90971 19.7016C10.0844 18.0208 12.1387 17.0871 12.1387 17.0871C12.1387 17.0871 66.9495 6.25567 67.7899 5.32192C68.6302 4.38818 72.7387 4.94842 72.7387 4.94842C75.3532 6.62916 77.6876 8.59002 79.9286 10.7376C80.4888 11.2045 80.9557 11.7648 81.4225 12.2316C81.7026 12.6051 82.0761 12.9786 82.3563 13.3521C82.9165 14.0058 83.3834 14.566 83.9436 15.2196C85.8111 17.6474 87.4919 20.1685 88.8925 22.8763C89.4527 23.9034 89.9196 25.0239 90.3865 26.051C94.5883 42.5783 89.3594 56.6779 89.3594 56.6779C90.76 56.3978 91.8805 56.3044 92.7208 56.211Z" fill="url(#paint0_radial_6_1952)"/>
<path fill-rule="evenodd" clip-rule="evenodd" d="M92.7208 56.211L92.3474 57.4249C92.3474 57.5182 92.3473 57.5183 92.254 57.6116C91.3202 60.7864 90.1064 63.7743 88.6124 66.5756C86.1846 71.1509 82.9165 75.3528 79.1815 78.901C74.7929 83.0095 69.564 86.2776 63.7748 88.4252C58.5458 90.3861 52.9433 91.5065 47.0607 91.5065C46.2204 91.5065 45.38 91.5065 44.5396 91.4132C43.3257 91.3198 42.1119 91.2264 40.898 91.0397C32.9612 90.0126 25.678 87.0246 19.5153 82.5426C18.955 82.0757 18.3948 81.7022 17.8345 81.2354C18.955 80.3016 21.196 80.2082 21.196 80.2082L18.0213 77.6871L10.0844 73.3919C8.59044 71.431 7.18983 69.3768 5.97596 67.2292C5.69584 66.6689 5.41572 66.2021 5.1356 65.6418C5.1356 65.6418 5.1356 65.6418 5.1356 65.5485C4.85547 64.9882 4.57536 64.4279 4.29523 63.8677C3.45486 62.0936 2.80122 60.2261 2.1476 58.2652C1.68073 56.8646 1.30725 55.464 1.02712 54.0634C0.840376 53.0363 0.653621 52.0092 0.466872 50.982C0.186749 48.8344 0 46.5934 0 44.3524C0 43.7922 0 43.3253 0 42.7651C0 42.0181 0.0933802 41.1777 0.0933802 40.4307C0.186755 39.6837 0.280112 38.9367 0.280112 38.1897C0.280112 38.0963 0.280112 38.0964 0.280112 38.003C0.466861 36.9759 0.560241 35.9487 0.840365 34.9216C1.12049 33.4276 1.494 32.027 1.96087 30.6264C2.52112 28.6655 3.2681 26.7047 4.10847 24.9306C4.94884 23.1564 5.88259 21.3823 6.90971 19.7016C10.0844 18.0208 12.1387 17.0871 12.1387 17.0871C12.1387 17.0871 66.9495 6.25567 67.7899 5.32192C68.6302 4.38818 72.7387 4.94842 72.7387 4.94842C75.3532 6.62916 77.6876 8.59002 79.9286 10.7376C80.4888 11.2045 80.9557 11.7648 81.4225 12.2316C81.7026 12.6051 82.0761 12.9786 82.3563 13.3521C82.9165 14.0058 83.3834 14.566 83.9436 15.2196C85.8111 17.6474 87.4919 20.1685 88.8925 22.8763C89.4527 23.9034 89.9196 25.0239 90.3865 26.051C94.5883 42.5783 89.3594 56.6779 89.3594 56.6779C90.76 56.3978 91.8805 56.3044 92.7208 56.211Z" fill="url(#paint1_radial_6_1952)"/>
<path fill-rule="evenodd" clip-rule="evenodd" d="M91.4139 44.4463C91.4139 46.127 91.3206 47.8077 91.1338 49.3951C90.8537 51.9162 90.3868 54.344 89.7332 56.6783C89.7332 56.7717 89.7332 56.7717 89.7332 56.865C88.8928 59.853 87.679 62.6543 86.2783 65.2688C83.944 69.564 80.956 73.4857 77.4078 76.8472C73.2993 80.6756 68.3504 83.7569 62.9347 85.8111C58.0792 87.6786 52.7569 88.7057 47.2478 88.7057C46.5008 88.7057 45.6604 88.7057 44.9135 88.6124C43.793 88.519 42.5791 88.4256 41.4586 88.3323C33.9886 87.3985 27.1723 84.5039 21.3831 80.302C20.5427 79.6484 19.7023 78.9948 18.8619 78.3412C18.6752 78.1544 18.3951 77.9677 18.2083 77.781C16.1541 75.9135 14.1932 73.9526 12.5125 71.7116C11.1119 69.9375 9.80463 67.9766 8.59076 65.9224C8.31063 65.4555 8.03052 64.9886 7.84377 64.4284C7.84377 64.4284 7.84377 64.4284 7.84377 64.335C7.56365 63.7748 7.28354 63.3079 7.09679 62.7477C6.34979 61.0669 5.69617 59.2928 5.13592 57.5187C4.76242 56.2114 4.38892 54.9042 4.10879 53.5969C3.92204 52.6632 3.7353 51.7295 3.64192 50.7024C3.3618 48.6481 3.17505 46.5939 3.17505 44.4463C3.17505 43.9794 3.17505 43.4191 3.17505 42.9523C3.17505 42.2053 3.26843 41.4583 3.26843 40.8047C3.3618 40.0577 3.36179 39.404 3.45516 38.657C3.45516 38.5637 3.45516 38.5637 3.45516 38.4703C3.54854 37.5365 3.73528 36.5094 3.92203 35.5757C4.20216 34.1751 4.57566 32.8678 4.94916 31.4672C5.50941 29.5997 6.16304 27.8256 7.00341 26.0515C7.84378 24.184 8.87088 22.3165 9.99137 20.5424C10.7384 19.3285 11.5788 18.1147 12.5125 16.9942C13.7264 15.4068 15.127 13.9128 16.5276 12.5122C24.4644 4.76209 35.3892 0 47.3412 0C47.808 0 48.2749 0 48.7418 0C49.2087 0 49.7689 5.69773e-06 50.2358 0.0933802C51.6364 0.186755 52.9436 0.373504 54.3443 0.560253C54.3443 0.560253 54.3443 0.560253 54.4376 0.560253C55.5581 0.747001 56.6786 0.933748 57.7057 1.21387C59.1064 1.58737 60.507 1.96087 61.8142 2.42774C62.748 2.70787 63.5883 3.08137 64.5221 3.45487C65.1757 3.73499 65.8293 4.01511 66.4829 4.29523C66.5763 4.38861 66.6697 4.3886 66.8565 4.48198C71.1517 6.53622 75.0734 9.33745 78.4349 12.6989C78.9018 13.1658 79.3686 13.6327 79.8355 14.0996C80.1156 14.473 80.4891 14.7532 80.7692 15.1267C81.2361 15.6869 81.7964 16.3405 82.2632 16.9008C84.0374 19.1418 85.5313 21.5695 86.8386 24.0906C88.3326 27.0786 89.5464 30.2533 90.3868 33.5214C90.9471 35.5757 91.2272 37.7233 91.5073 39.9643C91.3206 41.5517 91.4139 42.9523 91.4139 44.4463Z" fill="url(#paint2_radial_6_1952)"/>
<path fill-rule="evenodd" clip-rule="evenodd" d="M25.5845 26.7987C25.5845 26.7987 24.3706 29.4132 25.3978 32.0277C26.3315 34.6421 29.1327 32.9614 32.4008 32.0277C35.6689 31.0939 39.0304 27.7324 41.1781 25.5848C43.3257 23.4372 45.3799 20.5426 45.1932 17.7413C45.0064 14.9401 42.0184 13.0726 42.0184 13.0726C42.0184 13.0726 43.1389 11.672 42.2052 17.2745C41.2714 22.7836 40.0576 24.8378 38.8437 25.6782C37.6298 26.5185 34.0816 28.6662 32.1207 29.88C30.1599 31.0939 27.9189 32.3078 26.6116 32.0277C25.211 31.5608 24.5574 28.6662 25.5845 26.7987Z" fill="url(#paint3_radial_6_1952)"/>
<path fill-rule="evenodd" clip-rule="evenodd" d="M31.5604 24.8375C31.5604 24.8375 29.8797 26.3315 30.3466 27.5453C30.8135 28.7592 33.9882 28.0122 36.0424 25.3977C38.0967 22.7832 36.5093 20.729 36.5093 20.729C36.5093 20.729 35.7623 25.0242 33.8014 25.7712C31.8406 26.5182 31.1869 26.2381 31.1869 26.2381C31.1869 26.2381 30.7201 25.8646 31.5604 24.8375Z" fill="url(#paint4_radial_6_1952)"/>
<path fill-rule="evenodd" clip-rule="evenodd" d="M26.5188 26.7053C26.5188 26.7053 28.1062 24.8378 29.9737 23.1571C31.8412 21.383 35.0159 20.7293 35.0159 20.7293C35.0159 20.7293 33.1484 19.7022 30.7207 21.1028C28.3863 22.5968 26.5188 26.7053 26.5188 26.7053Z" fill="url(#paint5_radial_6_1952)"/>
<path fill-rule="evenodd" clip-rule="evenodd" d="M19.7957 26.7984C19.7957 26.7984 23.624 22.5965 28.1994 20.8224C32.7747 19.0483 34.3621 18.488 36.4163 16.8073C38.4706 15.1266 40.7116 13.8193 40.7116 13.8193C40.7116 13.8193 36.2296 14.0061 29.4132 18.3947C22.5969 22.5965 19.7957 25.3978 19.7957 26.7984Z" fill="url(#paint6_radial_6_1952)"/>
<path fill-rule="evenodd" clip-rule="evenodd" d="M10.552 25.9578C10.552 25.9578 17.0882 19.4215 22.2238 16.8071C27.3594 14.1926 30.8143 12.6052 35.3896 11.3913C39.965 10.2709 47.0614 8.21662 47.0614 8.21662L48.3687 7.56299C48.3687 7.56299 33.7089 7.84311 24.1847 13.6323C14.6605 19.4215 10.552 25.9578 10.552 25.9578Z" fill="url(#paint7_radial_6_1952)"/>
<path fill-rule="evenodd" clip-rule="evenodd" d="M18.4883 33.5215C18.4883 33.5215 19.6088 42.5789 21.1961 42.9524C22.7835 43.3259 28.386 43.3259 36.7897 39.0307C45.1934 34.7354 46.8741 35.7625 51.5428 31.0004C56.2116 26.2383 58.1724 20.8226 59.5731 17.2744C61.067 13.7262 61.4405 9.61768 60.9737 8.40381C60.9737 8.40381 62.561 9.33757 62.561 12.8858C62.561 16.434 61.5339 22.41 60.0399 25.7715C58.5459 29.2263 54.6242 34.642 49.9555 37.2565C45.2868 39.871 35.856 45.0066 26.7053 44.9132C17.4612 44.8199 18.9552 44.1663 18.0214 42.2988C16.9943 40.4313 18.4883 33.5215 18.4883 33.5215Z" fill="url(#paint8_radial_6_1952)"/>
<path opacity="0.5" fill-rule="evenodd" clip-rule="evenodd" d="M4.10889 41.1781C4.10889 41.1781 5.78964 44.8197 6.63001 48.1811C7.56375 51.5426 7.377 57.1451 11.2054 58.0788C15.0337 58.9192 20.356 61.4403 22.3169 60.7867C24.3711 60.1331 31.8411 58.8258 36.043 59.6662C40.2448 60.5066 47.8081 60.0397 50.4226 58.7325C53.0371 57.4252 58.8263 53.9704 61.5342 52.9433C64.2421 51.9161 67.977 48.9281 71.2451 45.66C74.5132 42.3919 74.4199 38.6569 75.2603 36.7895C76.1006 34.922 77.688 27.5454 77.5012 24.1839C77.3145 20.8224 75.2603 14.5663 75.2603 14.5663L73.3928 12.6055C73.3928 12.6055 75.7271 21.1959 74.7 27.3587C73.6729 33.428 74.6066 35.9491 70.4048 41.7383C66.2029 47.6209 60.2269 52.1963 53.5974 54.3439C46.9678 56.5849 42.6725 56.3047 35.8562 56.9583C29.4134 57.5186 21.3832 57.1451 18.2084 56.3047C15.3138 55.5577 11.4855 53.6902 8.59085 49.0215C5.50949 44.166 4.10889 41.1781 4.10889 41.1781Z" fill="#7D72B3"/>
<path opacity="0.4" fill-rule="evenodd" clip-rule="evenodd" d="M18.7685 31.6535C18.7685 31.6535 19.4221 41.4578 20.636 42.2982C21.8498 43.1385 24.5577 43.512 26.9854 42.6717C29.5065 41.8313 37.9102 39.0301 39.4042 38.1897C40.8982 37.3493 49.7688 32.8674 51.5429 31.4667C53.317 30.1595 55.6514 25.3974 56.4917 24.4636C57.3321 23.5299 59.4797 17.6473 60.04 15.4063C60.6936 13.1653 61.0671 10.5509 61.0671 10.5509C61.0671 10.5509 61.2538 9.33697 60.2267 8.8701C59.1996 8.4966 59.0128 8.8701 59.0128 8.8701C59.0128 8.8701 58.8261 10.3641 57.8924 14.5659C56.9586 18.7678 44.4464 33.1475 38.097 36.9758C31.7475 40.7108 25.7715 40.8975 23.6239 40.6174C21.3829 40.3373 18.6751 33.3342 18.7685 31.6535Z" fill="#7D72B3"/>
<path opacity="0.4" fill-rule="evenodd" clip-rule="evenodd" d="M18.4886 33.5213C18.4886 33.5213 18.7687 27.452 20.356 25.3977C21.9434 23.3435 27.2658 19.1416 30.3471 17.5543C33.5219 15.9669 38.0038 13.7259 39.5912 13.3524C41.1786 12.9789 42.299 13.3524 42.299 13.3524C42.299 13.3524 40.4316 12.3253 36.043 13.4458C31.6544 14.5663 26.7055 18.5814 24.2778 19.8886C21.85 21.1025 18.2084 24.1838 17.2747 25.7712C16.4343 27.1718 18.4886 33.5213 18.4886 33.5213Z" fill="#7D72B3"/>
<path opacity="0.4" fill-rule="evenodd" clip-rule="evenodd" d="M7.65674 27.0786L21.196 15.22L29.5997 11.3917C29.5997 11.3917 37.9101 8.59045 41.7384 7.6567C45.5668 6.72296 54.0639 6.5362 54.0639 6.5362L58.5458 7.00307C58.5458 7.00307 50.7958 2.80122 39.2173 5.88258C27.7323 8.96394 20.0756 12.8857 16.7141 16.0604C13.446 19.1418 8.31036 25.4912 7.65674 27.0786Z" fill="#7D72B3"/>
<path fill-rule="evenodd" clip-rule="evenodd" d="M7.28351 27.5453C7.28351 27.5453 0.000305355 36.3226 3.54854 41.7383C7.09677 47.154 8.68414 54.9975 9.71126 56.7716C10.7384 58.5457 22.5035 61.3469 24.9313 60.7867C27.359 60.2264 33.2416 58.7324 37.07 60.133C37.07 60.133 43.8863 59.5728 45.7538 59.5728C47.7147 59.5728 51.2629 57.8921 52.1033 57.5186C52.9436 57.1451 57.519 55.6511 59.8534 54.7173C62.1877 53.7836 66.0161 50.7956 67.51 49.6751C69.004 48.4612 73.0192 43.6991 73.8595 42.2052C74.6065 40.7112 76.9409 32.1207 77.5011 28.0122C78.0614 23.9037 76.3806 16.0603 74.98 13.3524C73.5794 10.6446 69.4709 8.12347 69.4709 8.12347L69.751 6.90959L73.0191 4.94873C73.0191 4.94873 78.715 12.3253 79.1819 18.7682C79.462 22.5031 80.3957 30.5333 79.3686 33.9882C78.6216 36.7894 75.9137 44.8196 73.486 47.7142C71.1516 50.6088 64.0552 57.9854 60.3202 59.4794C56.5853 60.88 45.3803 62.8409 38.8441 62.9343C33.9886 63.0276 23.3439 62.1873 18.115 62.0005C12.886 61.8138 9.15102 58.5457 7.09678 56.8649C5.04254 55.1842 5.69615 50.7022 3.64192 47.0606C1.4943 43.5124 0.373809 38.7503 0.840681 36.1358C1.30755 33.7081 7.28351 27.5453 7.28351 27.5453Z" fill="url(#paint9_radial_6_1952)"/>
<path fill-rule="evenodd" clip-rule="evenodd" d="M20.076 61.0666C18.9555 60.7864 17.9284 60.2262 16.8079 59.9461C16.1542 59.7593 15.594 59.666 14.9404 59.4792C14.2868 59.2925 13.6331 59.1991 12.9795 59.1991C11.6723 59.1057 10.365 58.8256 9.52464 57.7984C8.77765 56.8647 8.3108 55.8376 8.03068 54.6237C7.5638 53.0364 7.19028 51.449 6.72341 49.955C6.25654 48.461 5.69629 47.2472 4.85592 45.9399C4.5758 45.473 4.29567 44.9128 3.92218 44.4459C3.64205 43.979 3.1752 43.6055 2.89508 43.0453C2.24146 41.7381 2.05469 40.3374 2.05469 38.8434C2.05469 38.0964 2.24146 37.3495 2.42821 36.6025C2.61496 35.6687 2.89508 34.8283 3.36195 33.988C3.82883 33.241 4.20232 32.4006 4.66919 31.6536C5.69631 29.8795 6.72343 28.1054 7.9373 26.518C9.52466 24.5571 11.2988 22.5963 13.1663 20.8222C14.1934 19.7951 15.4072 18.8613 16.6211 17.9276C17.6482 17.1806 18.582 16.3402 19.5157 15.5932C21.1965 14.286 23.1573 13.4456 25.1182 12.5118C27.4526 11.3913 29.7869 10.2709 32.2147 9.43049C35.1093 8.40337 38.0039 7.56298 40.9919 6.90936C44.4467 6.25574 47.9949 6.069 51.4498 6.069C53.3173 6.069 55.3715 5.88225 57.239 6.53587C58.2661 6.90937 59.48 7.37624 60.3204 7.93649C60.5071 8.12324 60.6005 8.12323 60.7873 8.30998C60.8806 8.40336 60.8806 8.59013 60.974 8.6835C61.1607 9.057 61.2541 9.52386 61.2541 9.89736C61.2541 10.2709 61.0674 10.6444 61.0674 11.0179C61.0674 11.5781 60.8806 12.1383 60.8806 12.6986C60.8806 13.3522 60.6939 13.8191 60.6005 14.4727C60.4137 15.5932 60.227 16.7137 59.7601 17.8342C59.1065 19.4216 58.6396 21.1023 57.986 22.5963C57.7993 23.0632 57.4257 23.4367 57.1456 23.9035C56.9589 24.3704 56.7721 24.6505 56.492 25.1174C56.0251 25.8644 55.6516 26.7048 55.0914 27.3584C53.9709 28.8524 52.9438 30.4397 51.4498 31.6536C49.6757 33.0542 47.8082 34.2681 45.8473 35.2952C44.5401 35.9488 43.2328 36.5091 41.9256 37.1627C40.8051 37.723 39.5912 38.3766 38.3774 38.9368C35.3894 40.3374 32.1213 41.3645 28.9466 42.3917C28.0128 42.6718 27.1724 42.9519 26.2387 43.1387C25.3983 43.232 24.3712 43.5122 23.5308 43.5122C22.5971 43.5122 21.6633 43.232 20.7296 42.9519C19.2356 42.485 19.0488 40.8043 18.9555 39.4037C18.8621 38.3766 18.7687 37.3494 18.582 36.4157C18.3952 35.5753 18.3952 34.8283 18.2085 33.988C18.0217 33.1476 17.9283 32.3072 17.9283 31.4669C17.9283 30.3464 18.3019 29.4126 18.582 28.2921C18.7687 27.6385 18.7687 26.8915 19.1422 26.2379C19.5157 25.3041 20.2627 24.4638 21.1031 23.8101C21.8501 23.1565 22.6905 22.4095 23.4375 21.7559C23.9043 21.2891 24.4646 21.0089 24.9314 20.6354C25.7718 19.9818 26.7055 19.4216 27.7327 18.9547C28.4797 18.5812 29.0399 17.9276 29.7869 17.4607C30.5339 16.9938 31.3743 16.527 32.1213 16.0601C32.7749 15.6866 33.5219 15.4998 34.2689 15.2197C34.8291 15.033 35.3894 14.6595 35.9496 14.4727C36.5099 14.286 37.0701 14.1926 37.6304 14.0058C38.1906 13.8191 38.6575 13.6323 39.2177 13.4456C39.8714 13.2588 40.525 13.0721 41.0852 13.0721C42.2991 13.0721 42.8593 13.6323 43.2328 14.8462C43.6997 16.4336 43.1395 17.8342 42.5792 19.3282C42.1124 20.5421 41.5521 21.6625 41.1786 22.8764C40.6184 24.4638 39.1244 25.3042 37.9105 26.4247C36.6033 27.5451 35.0159 28.6656 33.5219 29.3192C33.055 29.506 32.4948 29.6927 32.0279 29.8795C31.6544 30.0662 31.1875 30.3464 30.814 30.5331C30.5339 30.7199 30.3472 30.9066 30.067 31.0934C29.8803 31.2801 29.6002 31.2801 29.32 31.4669C28.7598 31.8404 28.1996 32.2139 27.5459 32.494C26.9857 32.7741 25.7718 32.9608 25.3983 32.2139C25.2116 31.8404 25.2116 31.3735 25.1182 31C25.0248 30.5331 25.0248 30.0662 25.0248 29.5994C25.0248 29.1325 25.1182 28.759 25.2116 28.2921C25.3049 27.8253 25.4917 27.4517 25.6784 26.9849C26.1453 25.6776 26.9857 24.7439 27.7327 23.7168C28.1995 23.0631 28.6664 22.4095 29.2267 21.7559C30.067 20.8222 31.2809 20.4487 32.4014 20.0752C33.4285 19.795 35.0159 19.5149 36.043 20.0752C36.8834 20.6354 36.3231 21.7559 36.043 22.4095C35.8563 22.783 35.7629 23.1565 35.5761 23.53C35.4828 23.8102 35.4828 24.1837 35.296 24.4638C34.9225 25.024 34.2689 25.3975 33.7087 25.8644C33.5219 26.0511 33.1484 26.3313 32.8683 26.4247C32.4948 26.518 32.1213 26.518 31.7478 26.6114C31.561 26.6114 31.4677 26.8915 31.2809 26.7981C31.0942 26.7048 31.0942 26.518 31.0942 26.3313C31.0942 26.1445 31.1875 25.9578 31.2809 25.771C31.2809 25.771 31.2809 25.6776 31.2809 25.5843C31.4677 25.024 32.1213 24.3704 32.4014 23.9035C32.8683 24.0903 32.5881 24.3704 32.4948 24.6505C32.4014 24.8373 32.4014 25.024 32.4014 25.2108C32.4014 25.3975 32.1213 25.6776 32.308 25.8644C32.4014 25.9578 32.8683 25.771 32.9616 25.771C34.0821 25.3975 34.7358 24.1837 35.1093 23.1565C35.296 22.4095 35.296 21.289 34.549 20.9155C33.9888 20.7288 33.2418 20.8222 32.6815 20.8222C30.5339 20.8222 29.2267 23.1565 28.0128 24.6505C27.2658 25.6776 26.6122 26.7981 26.1453 28.012C25.8652 28.8524 25.6784 29.6928 25.4917 30.5331C25.3049 31.1867 25.1182 32.1205 26.0519 32.0271C26.6122 31.9337 27.1724 31.6536 27.7327 31.4669C28.1995 31.2801 28.5731 31.1867 29.0399 30.9066C29.6936 30.5331 30.5339 30.4397 31.1875 30.0662C31.7478 29.7861 32.308 29.506 32.8683 29.2259C34.2689 28.4789 35.7629 27.0783 36.6966 25.8644C37.3502 25.024 38.3774 24.3704 39.1244 23.6234C39.9647 22.8764 40.3382 21.8493 40.8985 20.9155C41.4587 19.8884 41.7389 18.9547 42.019 17.9276C42.2057 16.9938 42.8593 15.8733 42.4858 14.8462C42.2057 13.8191 40.8051 13.8191 39.9647 13.9124C39.2177 14.0058 38.4707 14.1926 37.7237 14.3793C36.4165 14.8462 35.2026 15.4065 33.9888 15.9667C32.0279 16.8071 30.3472 18.1143 28.5731 19.2348C27.6393 19.7951 26.6122 20.2619 25.7718 20.9155C25.1182 21.3824 24.558 22.036 23.9043 22.5029C23.4375 22.8764 23.1573 23.3433 22.5971 23.6234C21.9434 24.0903 21.3832 24.5571 20.9163 25.1174C20.5428 25.5843 20.076 26.2379 19.8892 26.7981C19.7025 27.265 19.8892 27.7319 19.8892 28.1988C19.8892 28.8524 19.7025 29.506 19.7025 30.1596C19.7025 30.8132 19.7025 31.5602 19.7025 32.2139C19.7025 33.6145 19.5157 34.9217 19.5157 36.229C19.5157 37.0693 19.7025 38.0031 19.8892 38.7501C19.9826 39.4037 20.2627 39.9639 20.3561 40.6176C20.3561 41.0844 20.4495 41.6447 20.823 41.9248C21.0097 42.0182 21.2898 42.1116 21.4766 42.2049C21.6633 42.2983 21.8501 42.3917 22.0368 42.3917C22.1302 42.3917 22.2236 42.485 22.4103 42.485C22.5037 42.485 22.5971 42.6718 22.5971 42.6718C22.7838 42.7652 23.1573 42.6718 23.3441 42.6718C23.9043 42.5784 24.4646 42.4851 24.9314 42.2983C26.332 42.1116 27.6393 42.1115 28.9466 41.6447C30.4405 41.0844 31.8412 40.2441 33.2418 39.6838C35.3894 38.7501 37.8171 38.0964 39.8713 36.976C40.8051 36.5091 41.8322 35.9488 42.766 35.5753C45.1003 34.5482 47.5281 33.7078 49.4889 32.1205C50.2359 31.5602 50.8895 30.8132 51.5432 30.1596C51.9167 29.7861 52.2902 29.4126 52.6637 28.9457C53.6908 27.6385 54.6245 26.2379 55.3715 24.8373C55.745 24.277 55.9318 23.53 56.2119 22.9698C56.7721 22.036 57.3324 21.1957 57.8926 20.2619C58.3595 19.3282 58.6396 18.3944 58.9198 17.3673C59.1065 16.7137 59.2932 16.2468 59.1999 15.5932C59.1999 14.286 59.2933 13.1655 59.8535 11.9516C60.1336 11.298 60.6005 10.3642 60.3204 9.61725C60.227 9.24375 59.6668 9.15037 59.3866 9.05699C58.6396 8.77687 57.8926 8.5901 57.1456 8.30998C56.492 8.02986 56.0251 7.65637 55.2781 7.563C54.998 7.46962 54.7179 7.46962 54.4378 7.46962C53.6908 7.46962 53.1305 8.02986 52.3835 7.93649C52.1968 7.93649 52.01 7.84311 51.7299 7.84311C51.3564 7.74973 50.9829 7.84311 50.6094 7.84311C49.769 7.84311 49.0221 7.65638 48.1817 7.65638C47.248 7.65638 46.3142 7.74973 45.3805 7.84311C44.4467 7.93648 43.6063 7.84311 42.6726 7.84311C42.1123 7.84311 41.7388 8.12323 41.272 8.30998C40.8051 8.49673 40.3382 8.5901 39.8713 8.77685C39.4045 8.9636 39.031 9.057 38.5641 9.15037C37.9105 9.15037 37.3502 9.05698 36.6966 9.24373C35.9496 9.43047 35.2026 9.71062 34.4556 9.99074C32.4948 10.8311 30.5339 11.9516 28.4797 12.6052C27.4526 12.8853 26.4254 13.0721 25.4917 13.4456C25.1182 13.6323 24.8381 13.8191 24.4646 14.0992C23.8109 14.5661 23.1573 14.9396 22.5037 15.3131C21.0097 16.2468 19.6091 17.2739 18.1151 18.3944C16.4344 19.6083 14.847 20.9155 13.4464 22.5029C11.0186 25.3041 8.49753 28.1054 6.34992 31.1867C5.3228 32.5873 4.20231 34.1747 3.54868 35.7621V35.8554C3.17519 36.7892 2.98844 37.7229 3.08181 38.7501C3.08181 38.7501 3.08181 38.7501 3.08181 38.8434C3.17519 39.6838 3.5487 40.6176 3.82883 41.3646C4.20232 42.1116 4.38905 42.8586 4.85592 43.6055C5.32279 44.3525 5.97642 45.0062 6.25654 45.8465C6.63004 46.8736 7.00355 47.9941 7.37704 49.1146C7.75054 50.4219 8.12404 51.8225 8.31079 53.2231C8.49754 54.0635 8.5909 54.9972 9.05777 55.7442C9.61802 56.8647 10.8319 57.2382 11.859 57.8918C12.4193 58.2653 12.6994 58.3587 13.353 58.3587C14.1934 58.4521 15.1271 58.6388 15.9675 58.919C17.7416 59.4792 19.6091 59.8527 21.4766 59.8527C22.5971 59.8527 23.7176 59.5726 24.7447 59.3858C25.7718 59.2924 26.7989 59.1991 27.826 59.0123C28.7598 58.8256 29.6935 58.6388 30.6273 58.6388C31.561 58.6388 32.5881 58.8256 33.4285 59.0123C35.0159 59.4792 36.5099 59.7593 38.0972 59.7593C39.1244 59.7593 40.0581 59.4792 41.0852 59.4792C42.019 59.3858 42.8593 59.5726 43.7931 59.6659C45.3805 59.7593 46.9678 59.3858 48.4618 58.8256C49.4889 58.4521 50.3293 57.9852 51.263 57.425C52.01 56.9581 52.757 56.8647 53.504 56.678C55.0914 56.2111 56.6788 55.6509 58.1727 54.8105C60.0402 53.69 61.6276 52.1026 63.4951 50.9821C64.5222 50.3285 65.7361 49.8616 66.7632 49.208C67.6036 48.6478 68.4439 47.9941 69.0976 47.2471C69.9379 46.4068 70.6849 45.5664 71.5253 44.726C72.1789 44.0724 72.459 43.232 72.7392 42.485C73.2994 41.2712 73.4862 40.0573 73.6729 38.7501C73.8597 37.4428 74.4199 36.3223 74.9801 35.2018C75.7271 33.7079 76.2874 32.3072 76.3808 30.6265C76.4741 29.3193 76.6609 28.1054 76.6609 26.7981C76.6609 25.9578 76.5675 25.2108 76.3808 24.3704C76.2874 23.6234 76.1007 22.8764 76.0073 22.1294C75.8205 21.1957 75.8205 20.2619 75.6338 19.3282C75.447 18.5812 75.2603 17.7408 75.0735 16.9004C74.8868 16.3402 74.7 15.78 74.5133 15.2197C74.1398 14.286 73.5796 13.3522 72.9259 12.5118C72.6458 12.1383 72.2723 12.045 71.9922 11.8582C71.7121 11.6715 71.7121 11.4847 71.4319 11.3914C71.0584 11.2046 70.6849 11.0179 70.3114 10.8311C69.6578 10.4576 69.0042 10.3642 68.3506 9.99074C67.7903 9.71062 67.2301 9.24373 66.6698 8.87023C66.0162 8.49674 65.3626 8.21662 64.8023 7.65638C64.2421 7.09613 63.8686 6.44251 63.4017 5.97563C62.8415 5.41539 62.0945 5.04189 61.5342 4.57502C60.5071 3.73465 59.1999 3.64127 58.0794 3.1744C57.5191 2.89428 56.8655 2.89428 56.3053 2.70753C55.5583 2.52078 55.0914 2.14728 54.3444 2.05391C53.6908 1.96053 53.0372 1.96053 52.2902 1.77378C51.9167 1.68041 51.5432 1.58704 51.0763 1.58704C50.3293 1.49366 49.4889 1.58703 48.7419 1.6804C48.0883 1.77378 47.3413 1.6804 46.6877 1.6804C46.1275 1.6804 45.4738 1.77378 44.9136 1.6804C43.2328 1.40028 41.4587 1.49366 39.778 1.58704C38.1906 1.68041 36.6033 1.77377 35.1093 2.33402C33.802 2.80089 32.5882 3.1744 31.2809 3.64127C30.4405 4.01477 29.6935 4.48164 28.8532 4.94851C26.8923 6.069 25.1182 7.37625 23.3441 8.59012C21.2898 9.99074 19.329 11.4847 17.3681 12.9787C16.0609 13.9124 14.7536 14.9396 13.5398 15.8733C12.9795 16.3402 12.4193 16.8071 11.9524 17.2739C13.1663 15.6866 14.5669 14.1926 15.9675 12.792C23.9043 5.04189 34.8291 0.279785 46.7811 0.279785C47.248 0.279785 47.7148 0.279785 48.1817 0.279785C48.6486 0.279785 49.2088 0.279791 49.6757 0.373165C51.0763 0.46654 52.3835 0.653289 53.7842 0.840038C53.7842 0.840038 53.7841 0.840038 53.8775 0.840038C55.3715 1.21354 56.8655 1.6804 58.4529 2.14727C59.7601 2.52077 60.974 2.89427 62.1879 3.26777C63.0282 3.54789 63.7752 3.92139 64.6156 4.20151C65.3626 4.48163 66.1096 4.76176 66.7632 5.13525C67.8837 5.78888 68.9108 6.53589 69.8446 7.28288C70.4982 7.74976 71.1518 8.40337 71.712 8.96361C72.5524 9.80398 73.2994 10.7377 73.953 11.6715C75.447 14.0058 76.6609 16.6203 77.2211 19.4216C77.688 21.7559 77.688 24.1836 77.5947 26.518C77.5013 27.7319 77.3145 29.1325 77.0344 30.3464C76.7543 31.747 76.2874 32.9609 76.1007 34.3615C76.0073 35.0151 76.1007 35.7621 76.0073 36.4157C75.9139 36.9759 75.7272 37.5362 75.6338 38.0965C75.447 39.217 75.0735 40.4308 74.5133 41.4579C73.7663 42.9519 72.8325 44.1658 71.712 45.3797C70.4982 46.7803 69.2843 48.1809 67.9771 49.4881C66.7632 50.8887 65.2692 52.0092 63.6818 52.943C62.468 53.69 61.1607 54.6237 59.8535 55.0906C58.5463 55.5575 57.1456 56.3045 55.745 56.4912C54.7179 56.5846 53.8775 56.9581 53.0372 57.6117C52.5703 57.9852 52.1034 58.4521 51.6365 58.919C51.1697 59.2924 50.7028 59.3858 50.1425 59.5726C48.9287 59.9461 47.7148 59.8527 46.4076 59.8527C44.5401 59.8527 42.766 60.0394 40.9919 60.2262C40.0581 60.3196 39.1244 60.4129 38.284 60.3196C37.4436 60.2262 36.6033 60.0395 35.8563 59.9461C34.9225 59.8527 34.0821 59.8527 33.1484 59.6659C32.4014 59.5726 31.8412 59.5726 31.1875 59.6659C30.6273 59.7593 30.067 59.6659 29.4134 59.6659C28.8532 59.7593 28.1996 59.8527 27.6393 59.9461C25.3983 60.5063 22.8772 61.7202 20.076 61.0666Z" fill="#00C4FF"/>
<path fill-rule="evenodd" clip-rule="evenodd" d="M17.928 81.3289C17.928 81.3289 28.2926 83.103 32.9613 83.0096C40.0577 82.8228 48.2747 83.6632 54.6242 83.85C60.9736 84.0367 72.0852 78.8077 74.1394 77.874C76.1937 76.9403 81.0491 74.139 85.3444 69.3769C89.6396 64.6149 91.3203 56.8647 91.3203 56.8647H89.5462C89.5462 56.8647 88.8926 60.2262 86.2781 63.9612C84.6907 66.2022 82.4498 68.1631 79.3684 70.8709C74.8864 74.6993 69.0972 77.6873 63.2146 79.1813C55.3711 81.1421 48.4614 80.5819 43.606 81.3289C36.6962 82.356 21.1961 79.9283 21.1961 79.9283L17.928 81.3289Z" fill="url(#paint10_radial_6_1952)"/>
<path fill-rule="evenodd" clip-rule="evenodd" d="M15.2207 76.1934C15.2207 76.1934 16.9014 80.4886 17.9286 81.329C17.9286 81.329 20.1695 81.4223 21.29 80.3018L18.1153 77.7807L15.2207 76.1934Z" fill="url(#paint11_radial_6_1952)"/>
<path fill-rule="evenodd" clip-rule="evenodd" d="M91.5069 48.8345C91.5069 48.8345 92.6274 53.6899 92.7208 56.3044C92.7208 56.3044 90.9466 57.4249 89.6394 56.8647C89.6394 56.8647 91.2268 50.8887 91.5069 48.8345Z" fill="url(#paint12_radial_6_1952)"/>
<path fill-rule="evenodd" clip-rule="evenodd" d="M61.5339 2.61426C61.5339 2.61426 70.778 3.54801 72.9256 5.042C72.9256 5.042 71.4316 6.72273 69.6575 7.00286C69.7509 6.90948 62.2809 2.80101 61.5339 2.61426Z" fill="#EE8CFF"/>
<path fill-rule="evenodd" clip-rule="evenodd" d="M7.00317 19.7952L10.8315 19.235L12.3255 17.2741C12.3255 17.1807 9.61766 18.3946 7.00317 19.7952Z" fill="#FF61C7"/>
<path opacity="0.5" fill-rule="evenodd" clip-rule="evenodd" d="M10.0852 73.4853C10.0852 73.4853 28.0131 78.7143 41.9259 78.9944C55.9321 79.2745 61.1611 76.1932 67.2304 73.7654C73.2997 71.4311 83.1974 66.1087 86.1854 62.0936C89.1734 58.1719 91.5078 48.8345 91.5078 48.8345C91.5078 48.8345 88.6131 62.8406 86.1854 65.2684C83.6643 67.6961 72.6461 75.2594 70.6852 76.1932C68.7244 77.1269 63.4954 81.142 53.8778 80.0215C53.8778 80.0215 47.435 80.9553 45.1006 80.7685C42.7663 80.5818 39.1247 82.9161 32.4951 80.7685C32.4951 80.7685 23.251 80.3017 21.2901 79.8348C19.2359 79.4613 10.0852 73.4853 10.0852 73.4853Z" fill="#54469B"/>
<path fill-rule="evenodd" clip-rule="evenodd" d="M14.4731 54.6241C14.4731 54.6241 29.3197 57.2386 40.0577 56.1181C50.7958 54.9976 56.585 52.2897 59.6664 50.3289C62.7477 48.368 68.7237 41.9252 70.9647 38.9372C73.2057 36.0426 74.3262 28.666 74.3262 28.666C74.3262 28.666 74.6997 35.7625 72.9256 38.9372C71.0581 42.0186 64.802 47.9012 62.1875 49.5819C59.573 51.2626 52.1964 55.3711 48.3681 56.0247C44.5397 56.6783 38.1903 58.6392 33.5215 57.7988C29.0396 57.0518 17.8346 57.2386 14.4731 54.6241Z" fill="#B04FE2"/>
<path fill-rule="evenodd" clip-rule="evenodd" d="M35.0154 78.4342C35.0154 78.4342 50.4222 77.4071 55.7445 76.1932C61.0668 74.9794 68.07 72.1781 72.9254 70.3106C77.7809 68.5365 81.5159 64.9883 84.2237 63.0274C86.9316 61.0666 90.3864 52.8496 90.3864 52.8496C90.3864 52.8496 88.1454 60.9732 84.784 63.5877C81.4225 66.2022 72.7387 71.0576 63.0277 75.4462C52.1029 80.3017 43.6992 78.9011 35.0154 78.4342Z" fill="#8B40E0"/>
<path fill-rule="evenodd" clip-rule="evenodd" d="M88.8928 59.0124C89.173 58.2654 89.3597 57.5184 89.6398 56.8647C88.7995 59.8527 87.5856 62.654 86.185 65.2684C85.8115 65.6419 85.2512 66.0155 84.8777 66.389C84.5042 66.8558 84.1307 67.2293 83.7572 67.6962C81.703 69.6571 79.462 71.4312 77.0343 72.9252C74.6066 74.5125 72.1788 76.0065 69.471 77.2204C67.4167 78.1541 65.2691 78.9011 63.1215 79.4614C61.3474 79.9283 59.4799 80.115 57.7058 80.2084C56.772 80.3017 55.9317 80.3951 54.9979 80.4885C53.8774 80.5819 52.6635 80.5819 51.6364 80.7686C49.6756 81.1421 47.7147 81.4223 45.7538 81.5156C44.0731 81.609 42.3924 81.8891 40.7116 81.8891C38.564 81.8891 36.4164 81.5156 34.2688 81.5156C32.2145 81.5156 30.0669 81.4222 28.0127 81.2355C26.7988 81.1421 25.585 80.862 24.3711 80.7686C23.344 80.6752 22.3168 80.3951 21.2897 80.3017C20.4493 79.6481 19.609 78.9945 18.7686 78.3409C18.5819 78.1541 18.3017 77.9674 18.115 77.7807C19.3289 78.1542 20.4493 78.5276 21.6632 78.9011C23.3439 79.4614 25.2114 79.7415 26.8922 79.9283C28.2928 80.115 30.0669 80.2084 31.4675 79.8349C32.9615 79.4614 33.9886 79.9283 35.2959 80.4885C35.9495 80.7686 36.5098 80.862 37.1634 81.0488C38.0971 81.3289 38.7508 81.2355 39.6845 81.1421C40.5249 81.0487 41.3652 80.862 42.1122 80.7686C42.7659 80.5819 43.5128 80.3017 44.1665 80.2084C45.3803 80.0216 46.6876 79.8349 47.9014 80.115C49.3021 80.3951 50.7027 80.4885 52.1033 80.3017C53.5973 80.0216 54.9045 79.9283 56.3985 79.9283C56.8654 79.9283 57.3323 80.0216 57.7991 80.0216C58.3594 80.115 58.8263 79.9283 59.3865 79.9283C60.3203 79.8349 61.254 79.6481 62.1878 79.368C63.0281 79.0879 63.8685 78.7144 64.7089 78.4343C66.3896 77.7806 67.7902 77.2204 69.2842 76.1933C70.4981 75.3529 71.8987 74.7927 73.1126 73.9523C74.3264 73.2053 75.3535 72.1782 76.5674 71.5246C77.8747 70.7776 78.9952 69.7504 80.209 68.9101C80.956 68.3498 81.703 67.6962 82.45 67.1359C83.1036 66.6691 83.8506 66.2956 84.5042 65.7353C85.5314 64.8016 86.5585 63.8678 87.3055 62.5606C87.9591 61.4401 88.5193 60.2262 88.8928 59.0124Z" fill="#00C4FF"/>
<path fill-rule="evenodd" clip-rule="evenodd" d="M41.4585 34.4549C41.4585 34.4549 52.1032 25.6777 56.5852 17.1807C56.6785 17.1807 44.1664 29.973 41.4585 34.4549Z" fill="#FF77F4"/>
<path fill-rule="evenodd" clip-rule="evenodd" d="M30.2537 44.8199C30.2537 44.8199 36.9766 44.8199 44.4466 41.7386C51.9166 38.6572 55.6515 32.2144 55.6515 32.2144C55.6515 32.2144 50.6093 37.0698 45.1002 39.7777C39.5911 42.4856 35.4826 43.1392 30.2537 44.8199Z" fill="#F9C6FF"/>
<path fill-rule="evenodd" clip-rule="evenodd" d="M56.8655 30.7203C56.8655 30.7203 57.6125 28.7594 59.0131 25.3979C60.4137 22.0364 61.5342 20.1689 61.5342 20.1689C61.5342 20.1689 61.1607 25.3979 56.8655 30.7203Z" fill="#EA9CF4"/>
<path fill-rule="evenodd" clip-rule="evenodd" d="M27.9192 62.6544C27.9192 62.6544 37.2566 64.8954 49.4887 62.6544C61.7208 60.4134 62.1876 59.6664 65.5491 56.9585C68.9106 54.3441 71.3383 50.9826 72.6456 49.6753C73.9528 48.3681 75.6336 43.9795 75.6336 43.9795C75.6336 43.9795 72.1787 50.1422 67.2299 54.3441C62.281 58.4525 58.1725 60.5068 49.8622 61.814C41.6452 63.0279 32.121 62.8411 27.9192 62.6544Z" fill="#D374F4"/>
<path fill-rule="evenodd" clip-rule="evenodd" d="M36.1362 83.0096C36.1362 83.0096 44.6333 83.7566 48.0882 84.4103C51.543 85.1572 58.1726 85.0639 62.001 83.6633C65.8293 82.2627 73.2993 78.2476 73.2993 78.2476C73.2993 78.2476 66.2962 82.1693 57.8925 83.103C49.5822 83.9434 44.4466 82.5428 36.1362 83.0096Z" fill="#D374F4"/>
<path fill-rule="evenodd" clip-rule="evenodd" d="M75.8203 77.0338C75.8203 77.0338 81.236 73.3922 83.8505 71.0578C83.8505 70.9644 81.0493 74.8861 75.8203 77.0338Z" fill="#D374F4"/>
<path fill-rule="evenodd" clip-rule="evenodd" d="M34.8293 30.907C34.8293 30.907 40.9921 26.2383 42.9529 22.9702C44.9138 19.6087 45.1005 17.7412 45.1005 17.7412C45.1005 17.7412 45.9409 21.0093 42.2993 25.1178C38.5643 29.2263 34.8293 30.907 34.8293 30.907Z" fill="#F2C4F8"/>
<path fill-rule="evenodd" clip-rule="evenodd" d="M5.883 55.2778C5.78963 57.3321 6.91012 59.6664 10.5517 61.067C14.1933 62.4676 16.9946 62.0942 16.9946 62.0942C16.9946 62.0942 12.7927 61.2538 10.4583 59.6664C8.12398 57.8923 5.883 55.2778 5.883 55.2778Z" fill="#F5CEFA"/>
<defs>
<radialGradient id="paint0_radial_6_1952" cx="0" cy="0" r="1" gradientUnits="userSpaceOnUse" gradientTransform="translate(17.717 27.905) scale(72.2891 72.2891)">
<stop offset="0.00558659" stop-color="#FF9AFF"/>
<stop offset="0.0930098" stop-color="#FB94FF"/>
<stop offset="0.2093" stop-color="#F183FF"/>
<stop offset="0.3418" stop-color="#E068FF"/>
<stop offset="0.4864" stop-color="#C841FF"/>
<stop offset="0.639" stop-color="#A910FF"/>
<stop offset="0.6844" stop-color="#9F00FF"/>
<stop offset="0.7432" stop-color="#9900F8"/>
<stop offset="0.8282" stop-color="#8700E5"/>
<stop offset="0.9287" stop-color="#6A00C6"/>
<stop offset="1" stop-color="#5200AB"/>
</radialGradient>
<radialGradient id="paint1_radial_6_1952" cx="0" cy="0" r="1" gradientUnits="userSpaceOnUse" gradientTransform="translate(17.717 27.905) scale(72.2891 72.2891)">
<stop offset="0.00558659" stop-color="#FF9AFF"/>
<stop offset="0.0930098" stop-color="#FB94FF"/>
<stop offset="0.2093" stop-color="#F183FF"/>
<stop offset="0.3418" stop-color="#E068FF"/>
<stop offset="0.4864" stop-color="#C841FF"/>
<stop offset="0.639" stop-color="#A910FF"/>
<stop offset="0.6844" stop-color="#9F00FF"/>
<stop offset="0.7432" stop-color="#9900F8"/>
<stop offset="0.8282" stop-color="#8700E5"/>
<stop offset="0.9287" stop-color="#6A00C6"/>
<stop offset="1" stop-color="#5200AB"/>
</radialGradient>
<radialGradient id="paint2_radial_6_1952" cx="0" cy="0" r="1" gradientUnits="userSpaceOnUse" gradientTransform="translate(19.7672 23.7225) scale(71.0594 71.0594)">
<stop offset="0.00558659" stop-color="#FF9AFF"/>
<stop offset="0.0930098" stop-color="#FB94FF"/>
<stop offset="0.2093" stop-color="#F183FF"/>
<stop offset="0.3418" stop-color="#E068FF"/>
<stop offset="0.4864" stop-color="#C841FF"/>
<stop offset="0.639" stop-color="#A910FF"/>
<stop offset="0.6844" stop-color="#9F00FF"/>
<stop offset="0.7432" stop-color="#9900F8"/>
<stop offset="0.8282" stop-color="#8700E5"/>
<stop offset="0.9287" stop-color="#6A00C6"/>
<stop offset="1" stop-color="#5200AB"/>
</radialGradient>
<radialGradient id="paint3_radial_6_1952" cx="0" cy="0" r="1" gradientUnits="userSpaceOnUse" gradientTransform="translate(29.1114 16.2074) scale(15.8892 15.8892)">
<stop offset="0.630208" stop-color="white"/>
<stop offset="1" stop-color="#EF9AFF"/>
</radialGradient>
<radialGradient id="paint4_radial_6_1952" cx="0" cy="0" r="1" gradientUnits="userSpaceOnUse" gradientTransform="translate(31.6394 21.9509) scale(5.52759 5.52758)">
<stop stop-color="white"/>
<stop offset="1" stop-color="#F7ABFF"/>
</radialGradient>
<radialGradient id="paint5_radial_6_1952" cx="0" cy="0" r="1" gradientUnits="userSpaceOnUse" gradientTransform="translate(28.2404 21.4395) scale(5.8247 5.8247)">
<stop stop-color="white"/>
<stop offset="1" stop-color="#F9D0FD"/>
</radialGradient>
<radialGradient id="paint6_radial_6_1952" cx="0" cy="0" r="1" gradientUnits="userSpaceOnUse" gradientTransform="translate(24.1204 15.8295) scale(13.4548 13.4548)">
<stop stop-color="white"/>
<stop offset="1" stop-color="#F7C2FC"/>
</radialGradient>
<radialGradient id="paint7_radial_6_1952" cx="0" cy="0" r="1" gradientUnits="userSpaceOnUse" gradientTransform="translate(18.3699 10.5996) scale(22.812 22.8121)">
<stop stop-color="white"/>
<stop offset="1" stop-color="#F5AEFE"/>
</radialGradient>
<radialGradient id="paint8_radial_6_1952" cx="0" cy="0" r="1" gradientUnits="userSpaceOnUse" gradientTransform="translate(26.8243 14.2133) scale(31.7857)">
<stop offset="0.744792" stop-color="white"/>
<stop offset="0.9998" stop-color="#E886FF"/>
<stop offset="0.9999" stop-color="#ED8CFF"/>
</radialGradient>
<radialGradient id="paint9_radial_6_1952" cx="0" cy="0" r="1" gradientUnits="userSpaceOnUse" gradientTransform="translate(16.913 14.447) scale(53.7005 53.7005)">
<stop offset="0.84375" stop-color="#EEADFE"/>
<stop offset="1" stop-color="#B439EE"/>
</radialGradient>
<radialGradient id="paint10_radial_6_1952" cx="0" cy="0" r="1" gradientUnits="userSpaceOnUse" gradientTransform="translate(33.0097 61.2154) scale(42.3239 42.3239)">
<stop offset="0.572917" stop-color="#EEB9FF"/>
<stop offset="1" stop-color="#7801BD"/>
</radialGradient>
<radialGradient id="paint11_radial_6_1952" cx="0" cy="0" r="1" gradientUnits="userSpaceOnUse" gradientTransform="translate(16.3438 77.5448) scale(4.56788)">
<stop stop-color="#6D00C2"/>
<stop offset="0.3995" stop-color="#6600BC"/>
<stop offset="0.976" stop-color="#5300AC"/>
<stop offset="1" stop-color="#5200AB"/>
</radialGradient>
<radialGradient id="paint12_radial_6_1952" cx="0" cy="0" r="1" gradientUnits="userSpaceOnUse" gradientTransform="translate(90.22 50.9849) scale(4.77114 4.77114)">
<stop stop-color="#1F0081"/>
<stop offset="0.73" stop-color="#260087"/>
<stop offset="1" stop-color="#2A008B"/>
</radialGradient>
</defs>
</svg>
