<svg width="122" height="122" viewBox="0 0 122 122" fill="none" xmlns="http://www.w3.org/2000/svg">
<path opacity="0.92" fill-rule="evenodd" clip-rule="evenodd" d="M121.904 60.8922C121.904 78.5126 114.473 94.335 102.486 105.483C96.7323 110.757 90.0198 115.072 82.588 117.829C75.8755 120.346 68.5637 121.784 61.0121 121.784C58.2551 121.784 55.6181 121.545 52.981 121.305C50.5837 120.945 48.1864 120.586 45.9089 119.986C40.395 118.548 35.2408 116.39 30.4461 113.633C27.4494 111.835 24.5726 109.918 21.8157 107.64C15.4628 102.366 10.3085 95.7734 6.59266 88.4615C4.19533 83.7867 2.5172 78.8722 1.31853 73.5981C0.479464 69.5226 0 65.3273 0 61.0121C0 49.0254 3.47613 37.758 9.46946 28.2885C11.9867 24.3329 14.9833 20.617 18.4594 17.2608C29.4872 6.59265 44.4705 0 60.8922 0C62.2107 0 63.5293 -1.09759e-05 64.8478 0.119856C71.8001 0.599322 78.3927 2.15759 84.5059 4.67479C85.5847 5.15425 86.6635 5.63372 87.6224 6.11318C92.0575 8.27078 96.133 10.9078 99.8488 14.1442C101.167 15.223 102.366 16.3019 103.445 17.3806C103.924 17.7402 104.284 18.2197 104.643 18.6992C115.431 29.607 121.904 44.4705 121.904 60.8922Z" fill="url(#paint0_radial_6_1985)"/>
<path fill-rule="evenodd" clip-rule="evenodd" d="M117.709 60.8919C117.709 77.3137 110.757 92.0573 99.6091 102.486C94.335 107.4 87.982 111.356 81.1496 113.993C74.9166 116.39 68.0842 117.709 61.0121 117.709C58.4949 117.709 55.9777 117.589 53.5803 117.229C51.3029 116.989 49.1453 116.51 46.9877 115.911C41.8334 114.592 37.0387 112.554 32.6037 110.037C29.7269 108.359 27.0898 106.561 24.5726 104.404C18.6992 99.489 13.7846 93.3758 10.3085 86.5434C8.15091 82.2282 6.47278 77.5534 5.39398 72.6389C4.55491 68.8031 4.19531 64.9674 4.19531 60.8919C4.19531 49.6245 7.43171 39.1961 13.0654 30.4458C15.4628 26.73 18.2197 23.2538 21.4561 20.1373C31.6448 10.1884 45.6691 4.0752 61.0121 4.0752C62.2107 4.0752 63.5292 4.0752 64.7279 4.19507C71.2007 4.67454 77.3139 6.11292 82.9476 8.51025C83.9066 8.86985 84.8655 9.34933 85.8244 9.82879C89.8999 11.8665 93.7356 14.3837 97.3316 17.2605C98.5303 18.2194 99.6091 19.2983 100.688 20.3771C101.047 20.7367 101.527 21.0963 101.887 21.5757C111.716 31.7644 117.709 45.6689 117.709 60.8919Z" fill="url(#paint1_radial_6_1985)"/>
<path opacity="0.4" fill-rule="evenodd" clip-rule="evenodd" d="M117.709 60.8919C117.709 77.3136 110.757 92.0572 99.6093 102.486C94.3352 107.4 87.9823 111.356 81.1499 113.993C74.9168 116.39 68.0844 117.709 61.0123 117.709C58.4951 117.709 55.9779 117.589 53.5806 117.229C46.029 116.27 38.9568 113.753 32.6039 110.037C34.5218 109.558 36.3198 108.958 38.2376 108.479C42.7926 107.28 47.1078 105.962 51.6627 105.482C53.4607 105.243 56.4574 104.523 56.4574 102.246C56.4574 101.647 56.3375 101.407 56.6971 101.047C57.1766 100.688 57.656 100.808 58.1355 100.688C59.454 100.448 60.5328 99.0095 61.3719 98.0506C62.6904 96.4923 64.2487 94.934 65.8069 93.6155C68.8036 90.9784 72.8791 89.6599 74.7969 85.8242C75.2764 84.7454 75.3963 83.6666 75.636 82.5878C75.8757 81.2692 76.8347 80.4302 78.0333 79.8309C79.3519 78.9918 80.9101 78.752 82.1088 77.6732C83.3075 76.7143 83.7869 75.1561 84.2664 73.7177C84.9856 71.4402 84.8657 69.0429 85.2253 66.6455C85.3452 65.4469 85.7048 64.2482 85.8247 63.0495C85.8247 61.8509 85.4651 61.0118 84.9856 59.933C84.3863 58.135 83.4273 56.2171 82.7081 54.4191C82.4684 53.6999 81.9889 53.2205 81.3896 52.741C80.5505 52.0218 79.9512 51.1828 79.1121 50.4636C78.5128 49.9841 77.7936 49.6245 77.3141 49.145C76.8347 48.7854 76.4751 48.1861 76.1155 47.7066C75.3963 46.9874 74.6771 46.1484 73.7181 45.549C71.4407 44.3504 70.1221 42.0729 67.4851 41.5934C64.2487 40.9941 61.6116 37.6378 58.2553 38.8365C56.0978 39.5557 53.9402 40.3947 51.5428 40.9941C50.1044 41.3537 48.4263 41.3537 46.9879 41.8332C46.1488 42.1928 45.1899 42.912 44.5906 43.6311C43.6316 44.7099 43.272 46.1483 42.433 47.2271C41.8336 48.0662 41.474 48.9053 40.8747 49.8642C39.9158 51.6622 39.9158 53.4602 39.9158 55.4979C39.9158 56.5767 39.7959 57.7754 39.9158 58.8542C40.0356 60.1727 40.635 61.1317 41.474 62.2105C41.9535 62.8098 42.3131 63.8886 42.9124 64.368C43.272 64.6078 43.5118 64.4879 43.8714 64.7277C44.4707 64.9674 44.7104 65.2071 45.1899 65.5667C46.6283 66.6455 48.1866 67.7243 49.9846 68.0839C50.9435 68.3237 51.7826 68.4435 52.6216 68.8031C53.3408 69.1627 54.1799 69.2826 55.019 69.4025C56.9368 69.6422 58.6149 68.923 60.0533 67.7243C61.0123 67.0051 61.6116 66.4058 62.3308 65.4469C62.6904 64.9674 62.9301 64.6078 63.5295 64.2482C63.8891 64.0085 64.2487 63.7687 64.7281 63.8886C65.0877 63.8886 65.4473 64.3681 65.9268 64.1283C66.2864 63.8886 66.5261 62.8098 66.646 62.57C66.8857 61.9707 67.0056 61.2515 67.2453 60.772C67.7248 59.8131 68.444 60.0529 69.4029 60.0529C70.0023 60.0529 70.8413 59.933 71.3208 59.4535C71.6804 58.8542 71.5605 57.7754 71.3208 57.1761C70.8413 56.337 69.7625 55.6178 69.1632 55.0185C68.6837 54.539 68.3241 53.9397 67.8447 53.3403C67.1255 52.2615 66.7659 50.104 65.2076 49.8642C64.6083 49.7444 63.7692 49.8642 63.1699 49.8642C62.4507 49.8642 61.9712 49.7443 61.252 49.5046C60.1732 49.2649 59.2143 48.9053 58.0156 48.9053C56.5772 48.9053 55.3786 49.2649 54.06 49.8642C53.4607 50.104 53.1011 49.9841 52.5018 50.1039C51.9024 50.3437 50.9435 51.5424 50.8236 52.2616C50.5839 53.5801 51.0634 54.7787 52.3819 55.3781C52.7415 55.4979 53.7004 55.6178 54.06 55.9774C54.4196 56.4569 54.1799 57.0562 53.9402 57.5357C53.4607 58.8542 53.7004 60.4125 55.2587 60.6522C56.3375 60.7721 57.4163 60.1727 58.2553 59.6933C58.9745 59.3337 60.2931 59.2138 60.2931 58.2549C60.1732 58.7343 59.454 58.4946 59.0944 58.4946C58.2554 58.4946 57.7759 58.4946 57.1765 58.0151C56.5772 57.5357 56.4574 57.0562 56.2176 56.4569C56.0978 56.2172 55.9779 55.7377 55.7382 55.4979C55.6183 55.2582 55.1388 55.0185 55.1388 54.7787C54.6594 53.6999 58.2553 53.1006 58.8547 52.9807C60.2931 52.8609 61.3719 53.8198 62.2109 54.8986C62.5705 55.3781 63.2897 56.0973 63.2897 56.6966C63.2897 57.2959 62.8103 58.2549 62.5705 58.8542C62.3308 59.4535 62.2109 59.933 61.9712 60.5323C61.7315 61.2515 61.3719 61.3714 60.7725 61.731C60.1732 62.0906 59.6938 62.5701 59.2143 63.0495C58.615 63.529 57.8957 63.6488 57.1765 63.7687C56.0977 64.0084 55.1388 63.4091 54.06 63.529C53.1011 63.529 52.3819 64.1283 51.5428 64.1283C49.625 64.2482 48.0667 64.0084 47.3475 61.9707C47.1078 61.1316 47.3475 60.772 47.827 60.1727C48.4263 59.5734 48.1866 59.0939 47.9468 58.3747C47.5872 57.5357 47.2276 56.8165 47.1078 55.9774C46.9879 55.1383 47.4674 54.1794 47.5872 53.2205C47.7071 52.5013 47.3475 51.4225 47.5872 50.8231C47.827 50.2238 49.0256 49.6245 49.625 49.145C50.3442 48.6656 51.1832 48.4258 52.0223 47.9464C52.9812 47.4669 53.7004 47.5868 54.6594 47.4669C55.4984 47.347 55.858 46.7477 56.5772 46.3881C57.4163 46.0285 58.4951 46.2682 59.3341 46.2682C60.2931 46.2682 60.7725 46.6278 61.6116 46.9874C62.4507 47.347 63.05 47.9464 64.0089 48.0662C65.0877 48.1861 66.1665 47.9464 67.2453 48.0662C68.3241 48.1861 68.6837 48.6656 69.5228 49.2649C70.3619 49.8642 70.9612 50.2238 71.6804 51.1827C72.04 51.6622 72.1599 52.1417 72.5195 52.5013C72.8791 52.9807 73.1188 53.2205 73.3585 53.8198C73.5983 54.539 74.0777 55.2582 74.3175 56.0973C74.4373 56.5767 74.5572 56.9363 74.5572 57.4158C74.4373 58.0151 74.1976 58.6145 74.1976 59.2138C74.1976 60.6522 73.5983 61.731 72.9989 63.0495C72.3996 64.3681 71.8003 65.6866 71.2009 67.0051C70.8413 67.8442 70.7215 69.6422 69.5228 69.8819C68.9235 70.0018 68.3241 69.8819 67.7248 70.2415C67.1255 70.6011 67.0056 71.3203 66.5261 71.6799C66.0467 72.1594 65.4473 71.9197 64.848 71.9197C63.8891 71.9197 63.05 72.0395 62.2109 72.3991C61.1321 72.8786 60.4129 73.8375 59.454 74.4369C58.6149 74.7965 57.656 75.2759 56.6971 75.3958C55.9779 75.5157 55.3786 75.3958 54.6594 75.6355C53.1011 76.115 51.9024 77.0739 50.3442 77.6732C49.1455 78.0328 47.7071 78.3924 46.5084 78.2726C46.029 78.2726 45.5495 78.0329 45.07 77.913C44.3508 77.6733 43.5118 77.6733 42.6727 77.4335C42.0734 77.3137 41.474 77.0739 40.8747 76.8342C40.2754 76.5945 39.9158 76.115 39.3164 75.8752C37.9979 75.2759 36.6794 75.2759 35.4807 74.317C33.9224 73.1183 32.6039 71.6799 30.9258 70.6011C30.2066 70.1217 29.847 69.5223 29.3675 68.923C29.0079 68.3237 28.5284 67.9641 28.049 67.4846C27.3298 66.7654 26.9702 65.8064 26.6106 64.9674C26.0112 63.529 25.292 62.0906 24.6927 60.5323C23.9735 58.3747 23.0146 56.337 22.5351 54.0596C22.1755 52.1417 22.655 50.4636 22.655 48.6656C22.655 48.1861 22.7749 47.7066 22.655 47.2271C22.5351 46.5079 21.9358 46.0285 21.4563 45.549C20.0179 43.8709 18.6994 42.1928 17.8603 40.0352C17.0213 37.8776 16.6617 35.2405 17.261 32.963C17.8603 30.9253 19.1789 29.8465 20.857 28.528C22.4153 27.3293 24.3331 26.3704 26.1311 25.5313C26.9702 25.0518 27.6894 24.5724 28.5285 24.2128C29.3675 23.8532 30.4463 23.7333 31.4052 23.4936C32.2443 23.2538 32.8436 23.2538 33.5628 22.6545C34.282 22.175 35.1211 21.5757 35.7204 20.9764C36.5595 20.2572 37.1588 19.4181 38.3575 19.1784C39.7959 18.8188 41.474 18.3393 42.9124 17.9797C44.8303 17.6201 47.1078 18.0996 49.0256 18.3393C50.9435 18.579 52.7415 18.579 54.6594 18.579C56.2176 18.579 57.7759 18.3393 59.3341 18.2194C59.9335 18.2194 60.5328 18.3393 61.1321 18.2194C62.0911 18.2194 62.9301 17.74 63.8891 17.5003C65.6871 17.0208 67.2453 16.1817 69.0433 15.5824C70.3619 15.1029 71.6804 15.2228 72.9989 14.9831C74.4373 14.7433 75.8757 14.2638 77.434 14.144C78.7525 14.144 80.0711 13.6645 81.2697 14.2638C83.4273 15.5824 84.7459 17.8598 86.9035 19.1784C89.1809 20.4969 91.6981 21.4558 94.0955 22.4148C94.9345 22.7744 95.8934 22.2949 96.6126 22.6545C96.9723 22.7744 97.4517 23.3737 97.6915 23.7333C98.051 23.4936 97.9312 23.0141 97.9312 22.6545C97.9312 22.0552 98.2908 21.5757 98.2908 20.9764C98.2908 20.2572 98.4107 19.4181 98.2908 18.6989C98.1709 18.3393 97.6915 17.5003 97.6915 16.9009C98.8901 17.8599 99.9689 18.9386 101.048 20.0174C111.236 30.6855 117.709 45.0695 117.709 60.8919Z" fill="url(#paint2_radial_6_1985)"/>
<path opacity="0.3" fill-rule="evenodd" clip-rule="evenodd" d="M23.1342 78.1536C22.7746 79.3522 22.6548 80.6708 22.5349 81.9893C22.8945 81.8695 23.374 82.7085 23.7336 82.8284C24.4528 83.0681 25.0521 83.0681 25.6514 83.4277C26.2508 83.7873 26.8501 84.6264 27.4494 84.7462C27.809 84.8661 28.4084 84.7462 28.8878 84.7462C29.8468 84.7462 30.6858 84.7463 31.5249 84.986C32.4838 85.2257 33.6825 85.4654 34.6414 85.3456C35.2407 85.2257 36.3195 84.986 36.799 84.5065C37.2785 84.0271 37.5182 82.8284 37.6381 82.1092C37.7579 80.0715 36.1997 78.0337 34.6414 76.8351C33.8024 76.2357 32.9633 76.2357 32.0043 75.7562C30.9255 75.1569 29.9666 74.9172 28.768 74.5576C28.0488 74.3179 27.0898 74.0781 26.3706 74.0781C25.6514 74.0781 24.8124 74.5576 24.213 74.6775C23.4938 74.9172 22.8945 74.9172 22.415 75.5165C21.9356 76.3556 22.1753 77.3145 23.1342 78.1536Z" fill="url(#paint3_linear_6_1985)"/>
<path opacity="0.3" fill-rule="evenodd" clip-rule="evenodd" d="M39.1962 85.3447C38.8366 85.8242 35.4803 88.701 37.1585 89.8997C37.2783 90.0195 37.9975 90.1394 38.1174 90.1394C38.5969 90.2593 38.7167 90.1394 39.1962 89.8997C40.0352 89.4202 40.1551 88.5812 39.9154 87.6222C39.9154 87.3825 39.6756 86.903 39.5558 86.6633C39.4359 86.3037 39.0763 86.3037 38.9564 85.8242L39.1962 85.3447Z" fill="url(#paint4_linear_6_1985)"/>
<path opacity="0.3" fill-rule="evenodd" clip-rule="evenodd" d="M58.4949 11.7471C59.0942 11.3875 61.0121 10.3087 62.0909 10.1888C62.4505 10.1888 62.93 10.3087 63.2895 10.3087C64.1286 10.3087 64.8478 10.1888 65.4471 10.7881C65.9266 11.2676 66.1663 11.7471 65.8067 12.3464C65.3273 13.1855 64.1286 13.7848 63.2895 14.1444C61.4916 15.2232 59.0942 16.1821 56.9366 15.9424C55.2585 15.8225 53.7002 14.504 52.142 13.6649C51.0632 13.0656 49.0254 11.9868 50.344 10.6683C51.4228 9.58947 53.1009 8.99013 54.6592 8.87027C55.3784 8.87027 57.0565 8.63054 57.536 8.99014C58.1353 9.46961 57.536 11.3875 58.7346 11.2676L58.4949 11.7471Z" fill="url(#paint5_linear_6_1985)"/>
<path fill-rule="evenodd" clip-rule="evenodd" d="M3.3566 49.385C4.19566 61.012 31.2855 42.193 57.5363 33.9222C88.342 24.0932 111.716 45.5493 115.072 44.3506C120.466 42.5526 98.5306 0.119847 63.4097 0.71918C23.8538 1.19865 1.9182 30.6858 3.3566 49.385Z" fill="url(#paint6_linear_6_1985)"/>
<path opacity="0.5" fill-rule="evenodd" clip-rule="evenodd" d="M0.599365 69.4028L2.51723 78.2729C2.51723 78.2729 13.0655 84.506 37.6381 82.2285C62.2108 79.9511 67.9644 67.9644 77.5537 61.0121C87.143 54.0599 105.722 48.546 110.517 43.0322C115.312 37.6382 111.236 26.7303 111.236 26.7303L109.318 24.0933C109.318 24.0933 112.794 33.4429 108.599 40.2752C104.524 47.1076 86.1841 50.344 76.2352 59.0943C66.2862 67.8445 46.0288 74.5571 28.6481 74.6769C11.6271 74.7968 0.599365 69.4028 0.599365 69.4028Z" fill="#BDFFE8" fill-opacity="0.5"/>
<path opacity="0.5" fill-rule="evenodd" clip-rule="evenodd" d="M8.75073 92.4169L12.5865 98.0506C12.5865 98.0506 30.2068 103.205 56.6974 98.0506C83.1879 92.8963 103.206 77.913 112.435 69.4025C121.785 60.892 120.586 49.0252 120.586 49.0252L119.747 45.4292C119.747 45.4292 118.069 57.7755 107.76 69.4025C97.452 81.0296 80.1912 91.5778 55.3788 95.893C30.6863 100.328 8.75073 92.4169 8.75073 92.4169Z" fill="#BDFFE8" fill-opacity="0.5"/>
<path opacity="0.5" fill-rule="evenodd" clip-rule="evenodd" d="M4.19531 38.8366C4.19531 38.8366 38.8367 50.7034 65.567 45.4293C92.2972 40.275 99.4892 23.0142 99.9687 14.1441L95.0542 10.4282C95.0542 10.4282 95.174 28.1685 78.2728 38.9565C61.3717 49.6246 17.98 43.2717 6.35291 34.0419L4.19531 38.8366Z" fill="#BDFFE8" fill-opacity="0.5"/>
<path fill-rule="evenodd" clip-rule="evenodd" d="M7.91145 59.6936C8.27105 61.8512 13.0657 58.8546 16.7816 51.6626C20.3776 44.4706 21.0968 29.4873 19.1789 28.2886C17.3809 26.8502 5.27438 44.95 7.91145 59.6936Z" fill="white"/>
<path fill-rule="evenodd" clip-rule="evenodd" d="M8.27087 62.8099C5.75367 63.2893 5.87354 68.2039 7.4318 70.2416C8.99007 72.2793 11.0278 71.3204 11.1477 67.0052C11.2675 64.488 10.3086 62.4503 8.27087 62.8099Z" fill="white"/>
<path fill-rule="evenodd" clip-rule="evenodd" d="M80.1907 5.87354C80.1907 5.87354 82.588 6.47286 83.3072 9.70926C83.3072 9.82913 80.9099 9.10993 80.1907 5.87354Z" fill="white"/>
<path fill-rule="evenodd" clip-rule="evenodd" d="M35.96 6.95242C35.96 6.95242 37.758 4.79484 41.354 3.83591C44.2308 3.11671 45.9089 3.23657 46.5082 3.1167C46.5082 3.1167 40.395 7.31202 35.96 6.95242Z" fill="white"/>
<defs>
<radialGradient id="paint0_radial_6_1985" cx="0" cy="0" r="1" gradientUnits="userSpaceOnUse" gradientTransform="translate(60.9566 60.9092) scale(60.9395 60.9396)">
<stop stop-color="#004858"/>
<stop offset="1" stop-color="#008BAB"/>
</radialGradient>
<radialGradient id="paint1_radial_6_1985" cx="0" cy="0" r="1" gradientUnits="userSpaceOnUse" gradientTransform="translate(44.8637 44.7989) scale(83.2989)">
<stop offset="0.00558659" stop-color="#00CEC0"/>
<stop offset="0.2576" stop-color="#00CCC0"/>
<stop offset="0.3833" stop-color="#00C4C1"/>
<stop offset="0.4811" stop-color="#00B7C2"/>
<stop offset="0.5645" stop-color="#00A4C4"/>
<stop offset="0.6387" stop-color="#008CC6"/>
<stop offset="0.7054" stop-color="#006EC8"/>
<stop offset="0.7179" stop-color="#0068C9"/>
<stop offset="0.7438" stop-color="#0767CB"/>
<stop offset="0.7813" stop-color="#1A66CF"/>
<stop offset="0.8259" stop-color="#3A63D6"/>
<stop offset="0.8759" stop-color="#6660E0"/>
<stop offset="0.9304" stop-color="#9E5BEC"/>
<stop offset="0.9879" stop-color="#E255FC"/>
<stop offset="1" stop-color="#F154FF"/>
</radialGradient>
<radialGradient id="paint2_radial_6_1985" cx="0" cy="0" r="1" gradientUnits="userSpaceOnUse" gradientTransform="translate(67.2766 65.9865) scale(51.0919 51.0919)">
<stop stop-color="#1372B3"/>
<stop offset="1" stop-color="white"/>
</radialGradient>
<linearGradient id="paint3_linear_6_1985" x1="22.2075" y1="79.7711" x2="37.6562" y2="79.7711" gradientUnits="userSpaceOnUse">
<stop stop-color="#B8C2FF"/>
<stop offset="1" stop-color="#7D72B3"/>
</linearGradient>
<linearGradient id="paint4_linear_6_1985" x1="36.6348" y1="87.7825" x2="39.8176" y2="87.7825" gradientUnits="userSpaceOnUse">
<stop stop-color="#B8C2FF"/>
<stop offset="1" stop-color="#7D72B3"/>
</linearGradient>
<linearGradient id="paint5_linear_6_1985" x1="50.0147" y1="12.5116" x2="66.0122" y2="12.5116" gradientUnits="userSpaceOnUse">
<stop stop-color="#B8C2FF"/>
<stop offset="1" stop-color="#7D72B3"/>
</linearGradient>
<linearGradient id="paint6_linear_6_1985" x1="26.0117" y1="9.62351" x2="85.7047" y2="86.184" gradientUnits="userSpaceOnUse">
<stop offset="0.0167598" stop-color="#B1FDF9"/>
<stop offset="1" stop-color="#37C7D1" stop-opacity="0"/>
</linearGradient>
</defs>
</svg>
